<svg width="40mm" height="42.926mm" version="1.1" viewBox="0 0 40 42.926" xmlns="http://www.w3.org/2000/svg">
 <g transform="translate(-45.112 -59.416)">
  <path d="m82.829 101.72c-0.7814 0.5576-1.2335 0.7035-1.8182 0.5865-0.4315-0.086-0.4992-0.1554-4.1458-4.2312-5.103-5.7036-5.5772-6.3166-5.8525-7.5646-0.096-0.4348-0.068-0.7054 0.099-0.9597 0.2322-0.3542 0.2322-0.3542-4.2799-5.2731-2.6185-2.8546-4.7434-5.0922-5.0631-5.3318-0.9802-0.7345-1.992-0.6248-3.0593 0.3317-0.4827 0.432-1.353 0.6966-1.8839 0.572-1.1144-0.2617-1.4504-0.5703-4.1776-3.8359-1.7553-2.1018-2.1726-2.6726-4.835-6.6134-2.2219-3.2886-2.5301-3.8539-2.6697-4.8967-0.1803-1.347 0.3863-2.1603 2.7987-4.0174 1.0678-0.822 1.327-0.9705 1.8286-1.0472 0.8705-0.1332 1.9559 0.3492 3.4519 1.5344 4.6437 3.6788 5.5672 4.4788 7.8021 6.7585 3.3586 3.4261 3.7398 3.9316 3.7797 5.0119 0.025 0.6683-0.1456 0.992-1.0128 1.9251-0.8235 0.8861-0.9764 1.3185-0.7499 2.1206 0.1322 0.4682 0.4539 0.8578 3.93 4.7595 2.0823 2.3373 4.2579 4.8105 4.8347 5.4961 1.0238 1.217 1.0554 1.244 1.3313 1.1384 0.8153-0.3121 1.8778 0.1372 3.1196 1.3193 0.4284 0.4078 0.8725 0.8111 0.9871 0.8962 0.1146 0.085 0.8117 0.7675 1.5493 1.5164 0.7375 0.7489 1.4722 1.4746 1.6326 1.6128 0.1603 0.1381 1.2357 1.1461 2.3896 2.2398 2.0626 1.9551 2.1005 1.9977 2.2433 2.5196 0.2735 0.9994-0.5096 2.2051-2.2294 3.4323zm1.2819-2.1753c0.1438-0.2276 0.2478-0.6115 0.2313-0.8531-0.03-0.4393-0.03-0.4393-0.5836 0.011-0.404 0.3286-0.587 0.4133-0.6775 0.3135-0.093-0.1027 0.0033-0.2526 0.3891-0.602 0.2822-0.2559 0.5033-0.5181 0.4914-0.5826-0.035-0.1903-0.4172-0.2475-0.6108-0.091-0.099 0.079-0.3447 0.2812-0.5472 0.4487-0.2544 0.2104-0.408 0.2607-0.4965 0.163-0.1-0.1103-0.0017-0.2565 0.4477-0.6636 0.4864-0.441 0.546-0.5373 0.3834-0.6194-0.1059-0.054-0.2625-0.1744-0.348-0.2688-0.1161-0.1281-0.3023-0.091-0.7349 0.1458-0.7283 0.3988-0.8819 0.1797-0.2348-0.3351 0.4357-0.3465 0.4508-0.3831 0.2507-0.6038-0.1823-0.201-0.2811-0.194-0.6848 0.049-0.2972 0.1786-0.5344 0.2366-0.641 0.1565-0.1417-0.1064-0.098-0.1763 0.2706-0.43 0.3882-0.2674 0.4171-0.3199 0.2464-0.4481-0.1341-0.1007-0.338-0.058-0.6651 0.1384-0.4619 0.2777-0.6997 0.2668-0.5364-0.025 0.045-0.08 0.2493-0.2412 0.4538-0.357 0.3666-0.2077 0.3674-0.2147 0.059-0.5117-0.3044-0.2935-0.3227-0.2916-0.7253 0.073-0.5139 0.4659-0.7056 0.2362-0.2294-0.2749 0.3011-0.3233 0.3027-0.3622 0.026-0.6677-0.2871-0.3167-0.3032-0.3161-0.6792 0.025-0.2667 0.2418-0.4056 0.3017-0.4517 0.1948-0.037-0.085 0.086-0.2923 0.2724-0.4617 0.3314-0.3004 0.3314-0.315 0.0042-0.6481-0.2824-0.2875-0.3676-0.3111-0.5444-0.1508-0.295 0.2675-0.8426 0.4641-0.953 0.3423-0.062-0.068 0.069-0.2105 0.3892-0.4235 0.444-0.2957 0.4676-0.3372 0.2987-0.5234-0.2018-0.2226-0.2929-0.2011-0.9118 0.2152-0.4865 0.3272-0.5559 0.339-0.5998 0.1019-0.021-0.1117 0.1463-0.3068 0.4671-0.5461 0.4886-0.3643 0.4942-0.3779 0.2628-0.6332-0.2251-0.2482-0.2452-0.244-0.415 0.087-0.2015 0.3933-0.953 0.7513-1.0565 0.5032-0.058-0.1384 0.0033-0.1948 0.7203-0.6633 0.3789-0.2476 0.3789-0.2476-0.045-0.6463-0.4237-0.3986-0.4237-0.3986-0.7914-0.065-0.2768 0.251-0.4021 0.2955-0.5069 0.1799-0.1135-0.1252-0.063-0.2034 0.2755-0.424 0.4147-0.2705 0.4147-0.2705 0.04-0.5688-0.3504-0.2794-0.4047-0.2789-0.855 0.0081-0.2645 0.1685-0.5609 0.3025-0.6587 0.2977-0.2619-0.013-0.038-0.3807 0.3862-0.6344 0.4777-0.2857 0.1553-0.2649-0.4869 0.031-0.2832 0.1307-0.5472 0.2019-0.5867 0.1584-0.098-0.1077 0.1261-0.2957 0.5545-0.4658 0.3557-0.1412 0.3557-0.1412-0.022-0.1621-0.2081-0.012-0.7478 0.1743-1.2037 0.4143-0.9731 0.5125-1.0747 0.7144-0.7708 1.5321 0.285 0.7668 0.8614 1.4802 4.375 5.4141 1.7723 1.9844 3.4813 3.9532 3.7976 4.3751 0.716 0.9549 1.2742 1.2212 1.9487 0.9298 0.5375-0.2322 1.8611-1.4049 2.2112-1.9589zm-3.2979-0.9981c-0.4666-0.083-0.6283-0.2707-0.607-0.705 0.026-0.523 0.2627-0.7743 0.6905-0.7319 0.4099 0.041 0.6648 0.3351 0.6263 0.7237-0.037 0.3689-0.4289 0.763-0.7098 0.7131zm0.1719-0.8002c-0.015-0.081-0.091-0.089-0.1687-0.019-0.078 0.071-0.1292 0.1945-0.1143 0.2754 0.015 0.081 0.091 0.089 0.1687 0.019 0.078-0.071 0.1292-0.1945 0.1143-0.2754zm-2.5964-2.0562c-0.3357 0.1239-0.6522-0.1005-0.8235-0.5839-0.1821-0.5137-0.038-0.7426 0.5099-0.8118 0.8152-0.1028 1.0877 1.11 0.3136 1.3957zm-0.1013-0.8246c-0.047-0.052-0.1492-0.037-0.227 0.034-0.078 0.071-0.103 0.1707-0.056 0.2226 0.047 0.052 0.1492 0.037 0.227-0.034 0.078-0.071 0.103-0.1707 0.056-0.2226zm-3.3727-2.6303c-0.558 0.2243-1.1169-0.8598-0.6578-1.276 0.078-0.07 0.326-0.1132 0.552-0.095 0.352 0.028 0.4262 0.081 0.5184 0.3702 0.1354 0.4242-0.041 0.8514-0.4127 1.0008zm-3.114-4.161c-0.2661-0.3021-0.6408-0.755-0.8326-1.0064-0.1918-0.2514-2.1795-2.5087-4.4172-5.0162-3.9668-4.4453-4.0723-4.5737-4.2249-5.1402-0.2292-0.851 0.054-1.6317 0.9235-2.5453 0.3801-0.3995 0.7545-0.8947 0.832-1.1005 0.1814-0.4814 0.044-1.1785-0.3468-1.7657-0.3491-0.5241-4.0582-4.2695-5.3107-5.3627-0.4514-0.394-1.5999-1.4018-2.5521-2.2396-3.8478-3.3851-5.2002-4.2059-6.3654-3.8632-0.4277 0.1258-0.7577 0.3714-1.9786 1.4724-1.3366 1.205-1.4832 1.3711-1.6685 1.8868-0.4539 1.2633 0.037 2.3602 2.7511 6.1425 0.7189 1.002 1.6732 2.3483 2.1207 2.9917 0.9463 1.3608 3.8326 4.9822 4.5937 5.7637 1.1346 1.1649 1.9872 1.2086 3.4778 0.1781 1.2987-0.8978 2.0266-1.0041 2.9887-0.4363 0.2606 0.1538 1.7738 1.7401 4.3068 4.5149 2.1477 2.3528 4.0318 4.3948 4.1868 4.5378 0.155 0.143 0.6047 0.6052 0.9993 1.027 0.5749 0.6145 0.7457 0.7415 0.859 0.6388 0.1085-0.098 0.028-0.2565-0.3424-0.6776zm-15.313-10.831c-0.3615-0.061-0.5448-0.2006-1.1651-0.8856-0.4048-0.4471-0.9105-1.0827-1.1237-1.4124-0.2132-0.3297-0.8009-1.15-1.3061-1.8229-0.5051-0.6729-1.2411-1.7042-1.6354-2.2917-0.7986-1.1898-1.3087-1.8765-2.3481-3.1614-1.1527-1.4249-1.2483-2.3917-0.2039-2.0621 0.3707 0.117 0.6515 0.3675 1.767 1.5768 0.7295 0.7907 1.5075 1.6987 1.729 2.0176 0.6482 0.9335 1.4938 2.1098 3.4025 4.7333 1.1272 1.5493 1.7081 2.8535 1.4339 3.2193-0.067 0.089-0.3142 0.129-0.5501 0.089zm0.093-0.8857c-0.3197-0.585-2.0601-3.1603-3.1503-4.6613-0.6415-0.8833-1.3448-1.8693-1.563-2.1913-0.945-1.394-3.1149-3.5336-3.3592-3.3121-0.092 0.083 0.1647 0.4684 1.4634 2.1942 0.507 0.6736 0.9287 1.2624 0.9372 1.3083 0.0085 0.046 0.8097 1.176 1.7804 2.5112 2.9677 4.082 3.5935 4.8078 3.9033 4.5269 0.071-0.065 0.066-0.2337-0.012-0.3759zm2.0679-1.3347c-0.4225-0.042-0.9702-0.6253-5.3932-5.7459-4.2479-4.918-4.0214-4.6303-3.93-4.9911 0.072-0.2838 0.122-0.3102 0.5219-0.2754 0.8132 0.071 1.2953 0.4511 3.8136 3.0087 2.1923 2.2264 5.1684 5.6744 5.5746 6.4584 0.471 0.9092 0.1998 1.623-0.5869 1.5454zm0.2622-1.1396c-0.2988-0.7631-1.9857-2.8098-4.458-5.4087-1.3927-1.464-2.6316-2.7378-2.7531-2.8306-1.1932-0.9115-2.2294-1.439-1.7546-0.8933 0.1061 0.122 0.9837 1.1287 1.9501 2.2371 1.9895 2.2819 4.2602 4.9642 5.1434 6.076 0.7813 0.9834 1.3683 1.4645 1.6246 1.3314 0.3534-0.1835 0.366-0.2095 0.2475-0.512zm2.1289-1.1736c-0.8857-0.3304-1.6993-0.9909-3.6047-2.9263-1.057-1.0736-2.2713-2.2923-2.6986-2.7082-0.4273-0.4159-1.2656-1.2409-1.8631-1.8334-2.0125-1.9956-1.9593-1.9179-1.561-2.2791 0.6836-0.6198 1.6294-0.087 3.9159 2.2059 0.5939 0.5956 1.5427 1.5138 2.1084 2.0405 0.5657 0.5267 1.7662 1.7193 2.6677 2.6503 1.5532 1.6038 1.6436 1.718 1.7228 2.1753 0.1057 0.6105-0.1603 0.8718-0.6876 0.675zm-0.077-1.1557c-0.4703-0.7106-1.5424-1.8801-2.7027-2.9482-0.5689-0.5238-1.2669-1.1667-1.5512-1.4288-0.2842-0.2621-1.1191-1.0517-1.8552-1.7546-2.0889-1.9947-2.8956-2.5296-3.2838-2.1776-0.1327 0.1203-0.038 0.2459 0.7912 1.044 0.5181 0.499 1.5231 1.4242 2.2333 2.0561 0.7102 0.6319 1.9277 1.8091 2.7055 2.616 2.403 2.4931 2.8518 2.9098 3.3577 3.1173 0.6071 0.2491 0.7053 0.08 0.3052-0.5242z" style="fill:#287c95"/>
 </g>
</svg>
