<svg width="61.633mm" height="70.119mm" version="1.1" viewBox="0 0 61.633 70.119" xmlns="http://www.w3.org/2000/svg">
 <g transform="translate(-75.013 -41.627)">
  <g transform="rotate(4.7261 39.567 101.2)" style="fill:#287c95">
   <path d="m102.42 100.06c-0.28873-0.0454-0.85212-0.22165-1.252-0.3919-0.60704-0.25843-0.83915-0.41079-1.4063-0.92314-0.53912-0.48702-0.75275-0.74309-1.0355-1.2411-0.40308-0.71001-0.63514-1.4018-0.70197-2.0928-0.05148-0.53188 0.03797-0.71292 0.36215-0.73318 0.31539-0.01994 0.43045 0.14977 0.54332 0.8004 0.26315 1.5171 1.2105 2.7571 2.5597 3.3504 1.736 0.76347 3.5698 0.34091 4.8038-1.1069 0.73619-0.86375 1.0527-1.7142 1.0772-2.8946 0.0115-0.55127 0.0496-0.63808 0.32749-0.74583 0.1193-0.04632 0.21476-0.01405 0.36952 0.12531 0.19742 0.17758 0.2079 0.21494 0.19394 0.69295-0.022 0.75955-0.13226 1.2976-0.41681 2.0343-0.20694 0.53572-0.37156 0.80091-0.84289 1.3577-0.65347 0.77201-1.09 1.1003-1.9369 1.4566-0.72368 0.30451-1.8469 0.437-2.645 0.31174zm-8.4846-3.9456c-0.96089-0.04373-1.7731-0.37237-2.0176-0.81642-0.12685-0.23036-0.13282-0.28772-0.055-0.52916 0.38367-1.1903 3.758-1.6218 4.9386-0.63151 1.0769 0.90336-0.6272 2.0789-2.866 1.9771zm17.44-1.0896c-0.90657-0.05202-1.7384-0.38356-1.9795-0.78895-0.40047-0.67331 0.36792-1.3684 1.8327-1.6578 1.0513-0.20777 2.3273-0.03757 2.9593 0.39471 1.2765 0.87304-0.51974 2.1836-2.8126 2.052zm-16.235-1.7673c-0.73402-0.1225-1.3691-0.41666-1.9439-0.9004-2.2422-1.887-1.8072-5.4303 0.82092-6.6867 0.67626-0.32329 1.7968-0.4097 2.525-0.19478 2.7416 0.80933 3.8225 4.1108 2.0846 6.3668-0.79743 1.0352-2.2442 1.6224-3.4866 1.415zm2.627-1.0032c0.31678-0.24628 0.44256-0.59526 0.37649-1.0445-0.05027-0.34152-0.10235-0.44232-0.34456-0.65963-0.24172-0.21743-0.34551-0.25741-0.68008-0.26202-0.50243-0.0069-0.81102 0.20534-0.97695 0.67166-0.14977 0.421-0.13894 0.55365 0.07645 0.93797 0.3143 0.56073 1.064 0.73331 1.5486 0.35652zm-2.9881-2.6113c1.058-0.30515 1.5238-1.5314 0.97028-2.5538-0.67934-1.2547-2.4956-1.1506-3.0206 0.17323-0.41047 1.0351 0.18221 2.1854 1.2411 2.4092 0.43563 0.09202 0.38526 0.09379 0.80919-0.02848zm14.927 2.6562c-0.95645-0.16873-2.1825-1.0412-2.6547-1.8892-0.64745-1.1627-0.73909-2.4009-0.26935-3.639 0.22306-0.58781 0.99549-1.5024 1.5302-1.8118 1.2388-0.71686 2.7089-0.73191 3.87-0.03961 1.1943 0.7121 1.8808 1.8229 1.9844 3.2111 0.0284 0.37815 0.0121 0.83566-0.0378 1.0777-0.28105 1.3611-1.2068 2.4582-2.4742 2.932-0.42757 0.15991-1.4637 0.24428-1.9486 0.15872zm2.8369-1.0569c0.57199-0.56895 0.48158-1.332-0.21236-1.7923-0.25519-0.16926-0.80783-0.14479-1.0789 0.04776-0.64015 0.45478-0.60223 1.4816 0.0688 1.8641 0.37113 0.21158 0.94598 0.15534 1.2224-0.11962zm-2.7669-2.6344c0.64175-0.32804 0.97589-0.95036 0.92272-1.7186-0.0298-0.42723-0.0715-0.5532-0.28571-0.85912-0.6416-0.91602-1.8499-1.0283-2.6053-0.24199-0.57618 0.5997-0.62926 1.544-0.12706 2.261 0.44796 0.63956 1.4267 0.90052 2.0954 0.5587z" style="fill:#287c95"/>
   <path d="m109.08 105.73c-5.136 0.97656-9.5006 1.1385-14.368 0.53313-5.5701-0.69269-8.1279-1.6062-9.2929-3.3189-0.78757-1.1578-1.1405-3.3994-0.96634-6.1373 0.08267-1.2996 0.22616-3.4992 0.31885-4.8879 0.16853-2.5249 0.16853-2.5249-1.239-6.9382-1.8039-5.6559-3.4831-9.126-6.083-12.57-2.2512-2.9824-2.3132-3.09-3.9136-6.7897-2.6849-6.207-2.8133-13.938-0.30772-18.535 2.2523-4.1324 6.7439-7.6143 11.681-9.0554 2.8649-0.83624 4.2832-0.84882 9.1294-0.08133 4.3571 0.69003 5.5179 0.62072 9.7172-0.58019 4.0288-1.1521 5.2627-1.1937 7.0731-0.23852 0.7764 0.40965 1.4699 0.9484 1.541 1.1972 0.0918 0.32101 0.24102 0.36842 0.51379 0.16322 0.21143-0.15906 1.425-0.78716 2.6967-1.3958 1.9082-0.9132 2.6726-1.1553 4.3739-1.3853 6.0925-0.8236 9.9005 1.9917 11.854 8.7634 1.5382 5.3331 1.2918 6.7165-3.772 21.177-3.0333 8.6619-5.5898 16.53-6.1114 18.809-0.50021 2.1858-0.4131 4.4574 0.32885 8.5744 0.28532 1.5833 0.62695 3.494 0.75916 4.246 0.28697 1.6323-0.20018 2.5329-2.1494 3.9738-2.766 2.0447-6.5476 3.4815-11.783 4.477zm10.657-4.7856c1.2637-0.85587 1.9975-1.5428 2.214-2.0726 0.34527-0.8448 0.30988-1.1713-0.68173-6.2913-0.76537-3.9518-0.83576-5.7038-0.34135-8.4976 0.56256-3.1789 0.14336-3.529-5.6217-4.6954-7.5915-1.5359-13.506-1.2971-22.716 0.91749-4.8271 1.1607-6.593 1.9566-7.4883 3.375-0.56734 0.89883-0.5648 0.97658 0.13488 4.1338 0.65726 2.9658 0.69576 3.58 0.4917 7.8434-0.23685 4.9486-0.16399 5.5807 0.77924 6.7608 1.1301 1.4139 7.0535 2.745 13.405 3.0127 4.914 0.20703 8.4031-0.30385 14.263-2.0884 3.1962-0.97331 3.9149-1.2832 5.5608-2.398zm2.0876-22.548c0.80531-0.88432 4.1746-8.7427 5.4804-12.782 2.4832-7.6819 3.6063-12.386 3.7808-15.835 0.0806-1.5934-0.0451-2.4474-0.68006-4.6213-1.9113-6.5433-6.3683-10.012-11.119-8.6534-1.6569 0.47382-3.6895 1.8484-4.2726 2.8893-0.54654 0.97567-0.54654 0.97567 0.40842 4.8942 1.0414 4.2732 1.0607 4.8414 0.29221 8.6097-0.50908 2.4963-1.8617 5.5796-2.8607 6.5211-0.63886 0.60211-0.63886 0.60211-0.45285-0.36008 0.10231-0.52921 0.66718-2.3271 1.2553-3.9954 1.9321-5.4808 2.0373-7.6673 0.57089-11.862-0.67336-1.9262-1.0306-2.5791-1.9529-3.5694-2.1041-2.2591-5.299-2.7387-9.7178-1.4586-5.7877 1.6766-8.6464 4.6028-9.5789 9.8055-0.60016 3.3485-0.41687 5.8846 0.72864 10.082 1.1381 4.1703 1.0347 4.7046-0.41327 2.1355-0.66616-1.1819-1.5851-6.1224-1.5398-8.2782 0.10018-4.7629 1.8181-9.4764 4.1774-11.461 0.87177-0.73353 0.87177-0.73353 0.13072-1.1152-0.91422-0.4709-4.7694-0.9961-6.9346-0.9447-4.9035 0.11641-10.663 3.2023-13.834 7.4125-2.9956 3.9771-3.654 9.9627-1.8254 16.595 0.95806 3.4749 1.8944 5.4418 4.0936 8.5986 2.2882 3.2846 3.0087 4.5148 4.2383 7.2368 1.1463 2.5374 2.1977 4.1318 2.6413 4.0049 0.1362-0.03898 0.26637-0.5362 0.28927-1.105 0.03962-0.98415-1.6212-6.5205-3.1389-10.464-0.46692-1.2131-0.37887-1.1169 0.79832 0.87246 0.91337 1.5435 1.6638 3.2464 2.4232 5.4988 1.4776 4.3825 2.2221 4.988 3.886 3.1609 0.91935-1.0095 0.98418-1.8542 0.36493-4.7546-0.45498-2.131-0.46283-2.3555-0.05361-1.533 0.26368 0.53 0.80973 1.8344 1.2134 2.8987 0.5584 1.4721 0.8877 2.0134 1.3765 2.2626 0.66199 0.3375 2.5715 0.38119 3.6064 0.08252 0.91383-0.26341 2.2987-1.1839 2.6009-1.7282 0.45304-0.81594 0.2818-2.5749-0.52876-5.4312-1.0244-3.6098-0.33476-2.6983 1.0496 1.3872 1.3736 4.054 1.4061 4.1066 2.6828 4.3475 1.4048 0.26506 4.7379 0.06255 6.2937-0.38238 1.0383-0.29694 1.28-0.48665 1.6376-1.2854 0.23074-0.51535 0.4427-1.5976 0.47102-2.405 0.0568-1.6205 0.55441-4.2261 0.82159-4.3025 0.0938-0.02681 0.0437 0.6843-0.11195 1.5803-0.33133 1.911-0.20211 4.5277 0.26331 5.3323 1.1173 1.9315 4.7905 2.5669 6.358 1.0997 0.95853-0.89718 1.7364-2.5906 2.4547-5.3436 0.69893-2.6788 1.9419-5.6749 2.277-5.4888 0.0855 0.04741-0.51065 2.2947-1.3246 4.9939-0.81399 2.6992-1.5393 5.1951-1.6118 5.5464-0.29715 1.4394 0.71292 2.6349 1.9318 2.2863 0.34656-0.09911 0.95551-0.53752 1.3532-0.97424zm2.0088-27.713c0.2264-3.4181-0.40603-6.0691-1.9169-8.0351-0.51879-0.67507-0.91044-1.2865-0.87034-1.3587 0.0401-0.07216 0.49431 0.22921 1.0094 0.66981 1.817 1.5544 2.8316 4.5518 2.6505 7.8303-0.0806 1.4578-0.59316 3.4911-0.9035 3.5837-0.0826 0.02468-0.0687-1.1859 0.0309-2.6901zm-40.843 3.782c-0.98101-1.6415-0.67973-5.6341 0.62008-8.2174 0.88865-1.7661 1.6229-2.4859 2.8887-2.8316 0.96988-0.26488 0.96988-0.26488 0.03105 0.62852-2.1274 2.0246-3.3837 5.7518-3.203 9.5033 0.07299 1.5155 0.05308 1.5697-0.33683 0.91726z" style="fill:#287c95"/>
  </g>
 </g>
</svg>
