<svg width="40mm" height="32.436mm" version="1.1" viewBox="0 0 40 32.436" xmlns="http://www.w3.org/2000/svg">
 <g transform="translate(-121.68 -69.118)">
  <path d="m161.21 71.898c0.0495 0.44691-0.15726 1.4388-0.35824 1.7184-0.0527 0.0733 0.0344 0.15781 0.274 0.26596 0.61086 0.27576 0.72668 1.1038 0.29184 2.0864-0.3097 0.69984-1.3788 2.0251-2.1646 2.6834-2.2431 1.8789-8.7127 4.7441-11.396 5.0468-0.34125 0.0385-0.68157 0.15664-0.8561 0.29708-0.37822 0.30447-0.83191 0.31734-1.1508 0.0326-0.25565-0.22827-0.25565-0.22827-3.8116 2.3242-7.0916 5.0905-6.9997 5.0196-7.0517 5.4443-0.0469 0.38335-0.18613 0.58796-0.6913 1.0158-0.1867 0.15811-0.25652 0.28631-0.18958 0.34801 0.19486 0.1796 0.21198 0.78964 0.0301 1.0707-0.18226 0.28165-0.44977 0.54037-1.5063 1.4567-0.32219 0.27944-0.71426 0.62699-0.87129 0.77233-1.7131 1.5856-5.5657 4.478-6.5288 4.9018-0.6702 0.29486-1.2701 0.25031-1.7483-0.12983-0.206-0.16393-0.70258-0.74337-1.1033-1.2879-0.83573-1.1355-0.86558-1.2976-0.39128-2.1244 0.23527-0.41015 0.53643-0.67784 2.2796-2.026 1.1046-0.85442 3.0664-2.2995 4.3595-3.2112 2.1586-1.5221 2.3969-1.6675 2.9117-1.7768 0.45024-0.0956 0.63848-0.0691 0.95593 0.13477 0.39501 0.25361 0.39561 0.25354 0.77383-0.0932 0.30772-0.28212 0.45081-0.34391 0.76501-0.33026 0.21258 9e-3 0.44255 0.0944 0.51105 0.18918 0.1202 0.16635 0.2225 0.10209 2.9256-1.8384 1.5406-1.1059 3.9406-2.8248 5.3333-3.8198 2.5322-1.809 2.5322-1.809 2.3435-2.1916-0.21152-0.42867-0.0718-0.76565 0.44601-1.0759 0.38443-0.23035 1.1432-1.6262 1.8205-3.3492 0.77595-1.9738 1.5818-3.1458 4.3347-6.3047 1.3614-1.5621 2.4056-2.3401 3.6804-2.7419 1.6221-0.51133 2.5454-0.29133 2.9227 0.69647 0.15289 0.40028 0.1547 0.40112 0.69205 0.32649 0.2963-0.04117 0.75633-0.02512 1.0222 0.03561 0.61706 0.14092 1.0623 0.70633 1.1452 1.4542zm-1.5237-0.88834c-1.0796-0.15434-1.1658-0.1247-1.3612 0.46858-0.0914 0.27753-0.40109 0.83077-0.68818 1.2294-1.1378 1.5798-2.2946 2.6786-5.4639 5.1892-0.66661 0.52809-1.2167 0.98896-1.2225 1.0242-5e-3 0.0352 0.41099-0.23582 0.92609-0.60229 0.51508-0.36649 1.0051-0.69858 1.089-0.73796 0.0838-0.0395 0.69507-0.42275 1.3583-0.85188 0.66322-0.42913 1.339-0.85036 1.5017-0.93609 0.16265-0.0857 0.73261-0.43513 1.2665-0.77645 1.1259-0.71976 1.7961-1.0363 2.5673-1.2127 0.55166-0.12618 0.55166-0.12618 0.77804-0.64003 0.3044-0.69095 0.37039-1.4966 0.14781-1.8046-0.12756-0.17653-0.38194-0.27537-0.899-0.34929zm1.0706 3.209c-0.14315-0.0573-0.32329 0.10529-1.1317 1.0214-0.88129 0.99869-1.0998 1.1886-2.621 2.278-2.1738 1.5567-6.2596 3.9841-8.6408 5.1336-0.90569 0.43719-1.1394 0.63987-0.80055 0.69443 0.28411 0.0457 3.2089-0.85256 4.5382-1.3939 2.3098-0.94058 4.9382-2.2564 6.1053-3.0565 0.87751-0.60151 1.6726-1.3675 2.3197-2.2347 0.76489-1.0251 0.87451-2.1847 0.23088-2.4422zm-3.4721-4.5242c-0.41243-0.14314-1.5342 0.09368-2.3664 0.49961-1.2001 0.58532-1.9239 1.2512-3.766 3.4643-2.0124 2.4177-2.6817 3.3982-3.2064 4.697-0.0944 0.23354-0.40471 0.88748-0.6897 1.4532-0.54314 1.0782-0.59221 1.3135-0.13681 0.65616 0.31625-0.45648 2.7707-3.2372 3.338-3.7817 0.21399-0.2054 0.45917-0.44796 0.54483-0.53903 0.0857-0.0911 0.71831-0.67026 1.4059-1.2871 0.68757-0.61682 1.3378-1.2122 1.4449-1.323 0.56126-0.58074 2.6811-2.1553 3.322-2.4675 0.63318-0.30845 0.69768-0.36199 0.6989-0.58008 2e-3 -0.31623-0.26956-0.68089-0.58919-0.79182zm-0.2492 1.9798c-1.0471 0.61571-1.7335 1.1482-3.5081 2.7213-1.9 1.6843-1.9867 1.7668-2.9883 2.8415-2.0432 2.1924-3.2161 3.5622-3.4891 4.0748-0.30268 0.56827-0.30268 0.56827 0.0244 0.26733 2.2484-2.0687 3.1984-2.8796 5.2627-4.4913 2.1009-1.6404 3.0826-2.5732 4.5546-4.3277 0.60479-0.72083 0.93384-1.2642 0.84231-1.3909-0.0295-0.04076-0.34389 0.09617-0.69849 0.305zm1.6523 3.0207c-0.69926 0.31539-1.2652 0.64352-3.0559 1.7717-0.51449 0.32414-0.96808 0.59256-1.008 0.59646-0.0399 4e-3 -1.043 0.66591-2.2292 1.4711-1.7944 1.218-2.3816 1.6684-3.4952 2.6807-1.3385 1.2167-1.3385 1.2167-0.82329 1.0133 0.28342-0.11185 0.88055-0.4279 1.327-0.7023 0.44644-0.27439 1.0783-0.63863 1.4041-0.80939 0.32583-0.17077 0.97257-0.54738 1.4372-0.83692 0.46461-0.28953 1.0717-0.63628 1.349-0.77053 1.1676-0.56522 4.4116-2.815 5.0843-3.526 1.2542-1.3259 1.2557-1.4498 0.01-0.88806zm-13.143 7.7785c-0.0611 0.23689 0.31483 0.99811 0.61928 1.2541 0.18097 0.15217 0.27232 0.1453 0.52839-0.0397 0.3096-0.22372 0.3096-0.22372-0.0119-0.56998-0.17683-0.19044-0.37322-0.49265-0.43647-0.67155-0.10134-0.28655-0.14677-0.31602-0.38182-0.24747-0.17196 0.0499-0.28482 0.14783-0.31751 0.27462zm-11.544 8.4505c-0.0698 0.0221-0.27277 0.17873-0.45094 0.34854-0.32397 0.3087-0.32397 0.3087-0.0153 0.80035 0.30865 0.49167 0.30865 0.49167 0.59877 0.27993 0.37537-0.27381 0.44035-0.45359 0.30493-0.84244-0.15763-0.45257-0.29159-0.63214-0.43745-0.58638zm-1.5707 0.69999c-0.49465-0.30279-0.6715-0.25116-0.37406 0.1091 0.36963 0.4478 0.1677 0.52548-0.36529 0.14051-0.57308-0.41388-0.94363-0.35256-0.50622 0.0838 0.1728 0.1724 0.27572 0.36387 0.26682 0.49645-0.0233 0.34857-0.17455 0.36507-0.31795 0.0347-0.16247-0.37425-0.53674-0.57305-0.76642-0.40707-0.14191 0.10258-0.12512 0.18196 0.0988 0.46714 0.14837 0.18898 0.26256 0.38826 0.25378 0.44284-0.0348 0.21626-0.30517 0.1009-0.54663-0.23326-0.22857-0.31633-0.2776-0.3359-0.47827-0.19089-0.19589 0.14156-0.19555 0.20032 3e-3 0.47457 0.15797 0.21862 0.18573 0.34226 0.0921 0.40994-0.0937 0.0678-0.20236 3e-3 -0.36032-0.21608-0.19509-0.26997-0.25543-0.29189-0.43884-0.15935-0.19015 0.13741-0.1843 0.19039 0.0555 0.50067 0.3514 0.45474 0.19459 0.57583-0.24152 0.18651-0.24177-0.21585-0.38832-0.27213-0.4994-0.19187-0.11947 0.0863-0.10394 0.18733 0.0647 0.42069 0.12204 0.1689 0.22638 0.36917 0.23187 0.44504 0.0153 0.21179-0.17145 0.2961-0.22328 0.10077-0.025-0.095-0.15677-0.2755-0.29243-0.40127-0.18684-0.17324-0.29579-0.19316-0.44946-0.0821-0.2183 0.15774-0.20194 0.37648 0.0547 0.73166 0.10095 0.13971 0.10935 0.23972 0.0222 0.26633-0.0778 0.0237-0.24496-0.10354-0.37843-0.28823-0.21699-0.30027-0.258-0.3135-0.44374-0.14311-0.17285 0.15857-0.17074 0.24389 0.0136 0.54897 0.28284 0.4681 0.0364 0.56437-0.27304 0.10666-0.19616-0.29017-0.25219-0.31413-0.43146-0.18459-0.17264 0.12475-0.17203 0.20538 4e-3 0.4974 0.30105 0.50059 0.11191 0.6843-0.2248 0.21834-0.23838-0.3299-0.28547-0.34957-0.48746-0.20362-0.19516 0.14102-0.19531 0.20068-1e-3 0.46929 0.3993 0.55259 0.0776 0.6713-0.36062 0.13307-0.15326-0.18821-0.21548-0.18503-0.50746 0.0258-0.33279 0.24038-0.33279 0.24038-0.0243 0.56197 0.31702 0.33042 0.29355 0.48718-0.0596 0.39616-0.10724-0.0277-0.24172-0.16738-0.29886-0.31047-0.0897-0.22471-0.13014-0.23678-0.29633-0.0885-0.10589 0.0944-0.24435 0.21695-0.30772 0.27231-0.0841 0.0735-0.0404 0.17529 0.16174 0.37696 0.20027 0.19975 0.24403 0.30011 0.15804 0.36225-0.1317 0.0951-0.36586-0.027-0.55593-0.29006-0.0796-0.11013-0.18606-0.12667-0.29739-0.0465-0.13514 0.0976-0.12714 0.20235 0.0361 0.47385 0.28529 0.47439 0.11716 0.69157-0.19786 0.25561-0.16155-0.22357-0.26354-0.28977-0.3205-0.20804-0.0483 0.0693 0.0202 0.2543 0.16226 0.4386 0.28244 0.36619 0.13794 0.59176-0.22666 0.35384-0.22274-0.14535-0.22274-0.14535-0.14547 0.13913 0.078 0.28773 0.75502 1.2005 1.2284 1.6566 0.30931 0.29805 0.96564 0.36886 1.5189 0.16388 0.76108-0.28198 4.7899-3.3839 6.7542-5.2002 0.56103-0.51877 1.2335-1.1353 1.4943-1.3702 0.38999-0.35106 0.45279-0.45663 0.35347-0.59408-0.0665-0.0919-0.0985-0.22111-0.0713-0.28705 0.0744-0.18016-0.86636-1.426-1.2576-1.6655zm-1.0182 2.8969c-0.14416 0.41538-0.54511 0.65278-0.98335 0.58219-0.37068-0.0597-0.38459-0.074-0.48353-0.49664-0.16118-0.68838 0.0585-0.98131 0.68111-0.9084 0.52579 0.0615 0.91025 0.46417 0.78577 0.82285zm-0.81212-0.49249c-0.19102-0.0307-0.25879 4e-3 -0.29732 0.1537-0.11163 0.43288 0.39352 0.66756 0.63645 0.29566 0.12664-0.19385-0.0285-0.39935-0.33914-0.44939zm-2.1319 2.3182c0.033 0.25487-0.0236 0.39137-0.22115 0.53417-0.29656 0.21429-0.81992 0.17802-0.99857-0.0692-0.32873-0.45493 0.13476-1.1788 0.69688-1.0883 0.37979 0.0611 0.46294 0.16027 0.52284 0.62329zm-0.583-0.27907c-0.2403-0.0161-0.44076 0.26166-0.3147 0.43611 0.11091 0.15345 0.39778 0.093 0.5317-0.11192 0.12083-0.18496 0.0392-0.30699-0.21699-0.32418zm-1.8854 1.9548c-0.0602 0.37388-0.83763 0.61098-1.2442 0.37952-0.4989-0.28403-0.35394-0.93047 0.26395-1.1771 0.38414-0.15338 1.0466 0.3857 0.98026 0.79765zm-0.62381-0.48514c-0.17605-0.11502-0.48972 0.0633-0.47479 0.26985 0.0136 0.18911 0.38063 0.26351 0.58205 0.11793 0.17655-0.12756 0.15128-0.21891-0.10728-0.3878z" style="fill:#287c95"/>
 </g>
</svg>
