<?xml version="1.0" encoding="UTF-8" standalone="no"?>
<!-- Created with Inkscape (http://www.inkscape.org/) -->

<svg
   width="55.5625mm"
   height="7.9375038mm"
   viewBox="0 0 55.5625 7.9375038"
   version="1.1"
   id="svg5"
   inkscape:version="1.1.1 (eb90963e84, 2021-10-02)"
   sodipodi:docname="icons.svg"
   xmlns:inkscape="http://www.inkscape.org/namespaces/inkscape"
   xmlns:sodipodi="http://sodipodi.sourceforge.net/DTD/sodipodi-0.dtd"
   xmlns="http://www.w3.org/2000/svg"
   xmlns:svg="http://www.w3.org/2000/svg">
  <sodipodi:namedview
     id="namedview7"
     pagecolor="#9b85ff"
     bordercolor="#666666"
     borderopacity="1.0"
     inkscape:pageshadow="2"
     inkscape:pageopacity="0"
     inkscape:pagecheckerboard="false"
     inkscape:document-units="mm"
     showgrid="false"
     inkscape:zoom="2.8284271"
     inkscape:cx="100.93949"
     inkscape:cy="34.471455"
     inkscape:window-width="1280"
     inkscape:window-height="662"
     inkscape:window-x="0"
     inkscape:window-y="720"
     inkscape:window-maximized="1"
     inkscape:current-layer="layer1" />
  <defs
     id="defs2" />
  <g
     inkscape:label="Layer 1"
     inkscape:groupmode="layer"
     id="layer1"
     transform="translate(-73.654694,-52.066716)">
    <g
       id="g24132"
       transform="translate(-11.188506,3.6151169)"
       style="fill:#ffffff;fill-opacity:1">
      <rect
         style="fill:#ffffff;fill-opacity:1;stroke-width:2.51153"
         id="rect950"
         width="5.735837"
         height="0.82315105"
         x="85.944031"
         y="50.165493"
         ry="0.28361782" />
      <rect
         style="fill:#ffffff;fill-opacity:1;stroke-width:2.51153"
         id="rect950-3"
         width="5.735837"
         height="0.82315105"
         x="85.944031"
         y="52.064369"
         ry="0.32388875" />
      <rect
         style="fill:#ffffff;fill-opacity:1;stroke-width:2.13751"
         id="rect950-6"
         width="4.154695"
         height="0.82315105"
         x="85.944031"
         y="53.852055"
         ry="0.31202593" />
    </g>
    <g
       id="g23992"
       style="fill:#fffafa;fill-opacity:1"
       transform="translate(-3.2967258,-9.5421015)">
      <rect
         style="fill:#fffafa;fill-opacity:1;stroke-width:1.51775"
         id="rect950-6-7"
         width="2.5744872"
         height="0.66975558"
         x="87.5028"
         y="64.647575"
         ry="0.25387943" />
      <rect
         style="fill:#fffafa;fill-opacity:1;stroke-width:1.31631"
         id="rect950-6-7-5"
         width="1.9364331"
         height="0.66975558"
         x="87.5028"
         y="65.922546"
         ry="0.25387943" />
      <path
         id="path2463"
         style="fill:#fffafa;fill-opacity:1;stroke-width:5.86741"
         d="m 335.53125,236.27344 c -6.18934,3.2e-4 -11.20671,5.01769 -11.20703,11.20703 -7.6e-4,6.1901 5.01693,11.20866 11.20703,11.20898 1.76192,2.2e-4 3.42892,-0.40615 4.91229,-1.13039 1.33476,-0.65169 4.83112,3.17198 6.58868,1.39781 1.29017,-1.30237 -1.72559,-5.8681 -1.25924,-6.91343 0.62184,-1.39387 0.96745,-2.93805 0.96725,-4.56297 -3.2e-4,-6.1901 -5.01888,-11.20779 -11.20898,-11.20703 z m 0,2.34765 c 4.89298,-2e-4 8.85958,3.9664 8.85937,8.85938 7e-5,1.68981 -0.47298,3.26913 -1.29391,4.61273 -0.39567,0.64759 1.53652,3.45157 0.99324,3.97562 -0.54952,0.53007 -3.57607,-1.2214 -4.24775,-0.84659 -1.27592,0.71198 -2.74605,1.11767 -4.31095,1.11761 -4.89222,-8.7e-4 -8.85762,-3.96715 -8.85742,-8.85937 -2.1e-4,-4.89222 3.9652,-8.85851 8.85742,-8.85938 z"
         transform="scale(0.26458333)"
         sodipodi:nodetypes="cccsssccccsssccc" />
    </g>
    <g
       id="g23870"
       transform="translate(4.817945,-22.385496)"
       style="fill:#ffffff;fill-opacity:1">
      <path
         id="path2463-5"
         style="fill:#ffffff;fill-opacity:1;stroke-width:5.24338"
         d="m 338.14258,283.63281 c -4.47104,2.3e-4 -8.47457,2.46158 -9.03682,6.66863 -0.0947,0.70867 1.83053,0.72627 2.16016,0.18936 1.66206,-2.70724 3.50962,-4.75983 6.87666,-4.76043 4.37259,-1.8e-4 7.9162,3.54342 7.91601,7.91601 7e-5,1.5101 -0.42262,2.92235 -1.15625,4.12305 -0.35357,0.57872 1.37418,3.08442 0.88868,3.55274 -0.49108,0.47369 -3.12226,-0.88768 -3.79688,-0.75586 -1.17918,0.23041 -0.70267,0.0904 -2.37891,0.85937 -0.76445,0.35068 -0.37908,1.77077 0.14907,1.95011 0.83196,0.2825 1.80342,-0.25113 2.76699,-0.72158 1.1928,-0.58239 4.31803,2.83353 5.88867,1.24804 1.15295,-1.16385 -1.54175,-5.24358 -1.125,-6.17773 0.5557,-1.24563 0.86346,-2.62602 0.86328,-4.07813 -2.8e-4,-5.53175 -4.48386,-10.01435 -10.01562,-10.01367 z"
         transform="scale(0.26458333)"
         sodipodi:nodetypes="cssccssssssssccc" />
      <path
         id="path2463-5-6"
         style="fill:#ffffff;fill-opacity:1;stroke-width:1.10629"
         d="m 87.32785,77.431154 c 1.16698,6e-5 2.11299,0.946068 2.113052,2.11305 1.41e-4,1.167123 -0.945928,2.113356 -2.113052,2.113419 -0.332203,4e-5 -0.646512,-0.07658 -0.926196,-0.213132 -0.251665,-0.122869 -0.910893,0.598066 -1.242276,0.263554 -0.243257,-0.245559 0.325355,-1.106414 0.237426,-1.303507 -0.117241,-0.262811 -0.182409,-0.553959 -0.182374,-0.860334 6.2e-5,-1.167123 0.946295,-2.113195 2.11342,-2.11305 z m 0,0.442642 c -0.922557,-3.8e-5 -1.670448,0.747851 -1.670406,1.670408 -1.4e-5,0.318609 0.08917,0.616384 0.243961,0.869715 0.0746,0.122107 -0.289705,0.650783 -0.187271,0.749591 0.103615,0.09995 0.674257,-0.23029 0.800902,-0.159626 0.240569,0.134247 0.517757,0.210735 0.812814,0.210723 0.922412,-1.63e-4 1.670077,-0.747994 1.670038,-1.670407 4.1e-5,-0.922412 -0.747626,-1.670242 -1.670038,-1.670407 z"
         sodipodi:nodetypes="cccsssccccsssccc" />
    </g>
    <path
       id="path5924"
       style="fill:#ffffff;fill-opacity:1;stroke-width:3.62794"
       d="m 101.43593,52.80931 c -1.781777,-4.8e-5 -3.226206,1.444382 -3.226159,3.22616 -4.7e-5,1.781778 1.444382,3.226207 3.226159,3.22616 0.69041,1.8e-5 1.33001,-0.216747 1.85469,-0.586063 0.0261,-0.01839 0.0229,-0.06182 0.0206,-0.187349 -0.002,-0.0946 -0.0178,-0.21753 -0.10196,-0.264895 -0.0572,-0.03221 -0.20421,-0.0127 -0.30103,0.01408 -0.49816,0.137766 -0.94118,0.447744 -1.47226,0.448035 -1.463511,-6.9e-5 -2.649902,-1.186458 -2.649971,-2.649966 6.9e-5,-1.463508 1.18646,-2.6499 2.649971,-2.649969 1.46351,6.9e-5 2.64989,1.186461 2.64996,2.649969 -0.003,0.06303 -0.008,0.125944 -0.015,0.188619 -0.12062,0.319109 -0.40255,0.600527 -0.49402,0.556554 -0.30734,0.06281 -0.6169,-0.299257 -0.59635,-0.388607 0.0263,-0.114594 0.0403,-0.233974 0.0403,-0.356566 -5e-5,-0.377121 0.0644,-1.198803 -0.0894,-1.517737 -0.0657,-0.08133 -0.3898,-0.147556 -0.5457,-0.05219 -0.0844,0.05165 -0.0256,0.281074 -0.0729,0.249597 -0.25117,-0.16723 -0.55258,-0.264536 -0.87695,-0.264583 -0.87527,1.29e-4 -1.584786,0.709644 -1.584915,1.584917 1.29e-4,0.875271 0.709645,1.584786 1.584915,1.584915 0.48032,-7.1e-5 0.91083,-0.213897 1.20148,-0.551386 0.0338,-0.03921 0.61034,0.52737 0.86609,0.543634 0.20197,0.01283 0.43331,-0.08455 0.60204,-0.208772 0.37838,-0.278577 0.31233,-0.208246 0.47977,-0.565013 0.0802,-0.170841 0.0768,-0.608041 0.0768,-0.803378 5e-5,-1.781778 -1.44438,-3.226207 -3.22615,-3.22616 z m 0,2.175576 c 0.58025,-7.9e-5 1.05066,0.470331 1.05058,1.050584 8e-5,0.580252 -0.47033,1.05066 -1.05058,1.050581 -0.58025,7.9e-5 -1.05066,-0.470329 -1.05058,-1.050581 -8e-5,-0.580255 0.47033,-1.050663 1.05058,-1.050584 z"
       sodipodi:nodetypes="cccssssccccccsccsscccsssscccccccc" />
    <path
       id="path11092"
       style="fill:#fff2f2;fill-opacity:1;stroke:none;stroke-width:0.276752px;stroke-linecap:butt;stroke-linejoin:miter;stroke-opacity:1"
       d="m 108.22164,52.955481 c -0.23134,0.25391 -0.30019,0.29456 -0.53153,0.54846 l -0.11469,0.70904 h -0.60048 c -0.21393,0.23461 -0.32947,0.45671 -0.54341,0.69132 v 3.63078 l 0.62046,0.84411 3.03437,-0.0231 0.70066,-0.57992 v -0.46561 h 0.8558 c 0.29489,-0.24219 0.35475,-0.50092 0.64966,-0.74311 v -3.24993 c -0.57034,-0.57034 -0.7541,-0.78094 -1.32443,-1.35128 z m 0.46063,0.48196 h 1.8986 c 0.40703,0.40704 0.81407,0.81408 1.22111,1.22111 v 2.31872 c -0.2105,0.17294 -0.42833,0.5714 -0.63883,0.74435 -0.8101,-10e-4 -1.62023,7.3e-4 -2.43034,0 -0.18449,-0.23754 -0.36163,-0.7006 -0.54611,-0.93814 v -2.59364 c -8.8e-4,-0.1133 -0.0246,-0.23551 0.0879,-0.30489 0.13594,-0.1491 0.27177,-0.29841 0.40772,-0.44751 z m 1.12396,0.26354 c -0.0338,-2.7e-4 -0.0678,0.004 -0.10077,0.0124 -0.13683,0.0333 -0.14578,0.17048 -0.16794,0.2806 -0.0282,0.39946 -0.003,0.70354 -0.0185,1.10321 0.005,0.2738 0.27431,0.41758 0.5209,0.3545 0.39823,-0.009 0.80066,0.0177 1.19631,-0.0129 0.18104,-0.10831 0.0702,-0.26085 0.10785,-0.43039 -0.0417,-0.2469 -0.3163,-0.14812 -0.48783,-0.16123 -0.24245,2.1e-4 -0.55263,0.005 -0.79508,0.006 -0.004,-0.30069 0.009,-0.6033 -0.006,-0.90279 -0.0272,-0.15997 -0.10212,-0.24808 -0.24879,-0.24925 z m -2.2923,1.25459 c 0.0998,-0.002 0.0522,0.14468 0.0615,0.23358 l 0.0288,2.20109 c 0.25856,0.33297 0.48834,0.61045 0.7469,0.94342 l 1.76468,-0.0231 c -0.16356,0.12404 -0.31564,0.28018 -0.48627,0.38447 l -2.11402,0.0231 c -0.1707,-0.21962 -0.34141,-0.43925 -0.51211,-0.65887 v -2.59106 c 0.15279,-0.16743 0.30558,-0.33485 0.45837,-0.50229 0.0209,-0.007 0.0379,-0.0101 0.0522,-0.0103 z"
       sodipodi:nodetypes="cccccccccccccccccccccccccscccccccccsscccccccccccc" />
    <path
       id="rect14727"
       style="fill:#ffffff;fill-opacity:1;stroke:none;stroke-width:2.47815"
       d="m 119.1669,59.307566 0.45003,-0.0638 v -5.90332 c -0.1039,-0.41704 -0.38147,-0.65657 -0.81385,-0.58308 -1.12274,0.004 -2.24641,-0.009 -3.36856,0.007 -0.43371,0.0813 -0.43539,0.51427 -0.3945,0.8859 -0.009,1.78741 -0.002,3.57485 -0.004,5.36228 0.12274,0.47026 0.62928,0.24011 0.81279,-0.0444 0.39485,-0.4396 0.7682,-0.89829 1.16825,-1.33338 0.4209,-0.2106 0.73442,0.25159 0.99197,0.51005 0.38722,0.38641 0.77381,0.77351 1.15783,1.16307 z m -2.05994,-2.52271 c -0.4914,0.4421 -0.92019,0.84329 -1.3755,1.32124 v -4.36113 c 0,-0.47806 0.7712,-0.37312 1.74115,-0.36857 0.9695,0.005 1.28667,0.002 1.34864,0.1394 0.0745,0.165 0.0376,0.61742 0.0692,0.89262 v 3.69755 c -0.48446,-0.47919 -0.88989,-0.88036 -1.40615,-1.32202 -0.11963,-0.0508 -0.37987,-0.12599 -0.37733,8.6e-4 z"
       sodipodi:nodetypes="cccsccsccsccccssssscsc" />
    <g
       id="g23146"
       style="fill:#ffffff;fill-opacity:1"
       transform="translate(36.404709,-75.322762)">
      <circle
         style="fill:#ffffff;fill-opacity:1;stroke:none;stroke-width:2.5"
         id="path22837"
         cx="88.843735"
         cy="129.11177"
         r="0.76839072" />
      <circle
         style="fill:#ffffff;fill-opacity:1;stroke:none;stroke-width:2.5"
         id="path22837-9"
         cx="88.843735"
         cy="131.33624"
         r="0.76839072" />
      <circle
         style="fill:#ffffff;fill-opacity:1;stroke:none;stroke-width:2.5"
         id="path22837-3"
         cx="88.843735"
         cy="133.60469"
         r="0.76839072" />
    </g>
  </g>
</svg>
