<?xml version="1.0" encoding="UTF-8" standalone="no"?>
<svg
   xmlns:dc="http://purl.org/dc/elements/1.1/"
   xmlns:cc="http://creativecommons.org/ns#"
   xmlns:rdf="http://www.w3.org/1999/02/22-rdf-syntax-ns#"
   xmlns:svg="http://www.w3.org/2000/svg"
   xmlns="http://www.w3.org/2000/svg"
   xmlns:sodipodi="http://sodipodi.sourceforge.net/DTD/sodipodi-0.dtd"
   xmlns:inkscape="http://www.inkscape.org/namespaces/inkscape"
   width="116.56882mm"
   height="70.119232mm"
   viewBox="0 0 116.56881 70.119234"
   version="1.1"
   id="svg8"
   inkscape:version="1.0.2 (1.0.2+r75+1)"
   sodipodi:docname="logo.svg">
  <defs
     id="defs2">
    <rect
       x="88.709213"
       y="113.39985"
       width="56.992569"
       height="23.459948"
       id="rect850" />
    <clipPath
       clipPathUnits="userSpaceOnUse"
       id="clipPath927">
      <path
         id="path929"
         style="fill:#ff0000;fill-opacity:1;fill-rule:nonzero;stroke:none;stroke-width:0.264583"
         d="m -57.535506,378.57586 v 209.06269 h 47.6973468 c -0.020511,-0.12933 -0.03939,-0.25897 -0.05426,-0.38912 -0.094228,-0.82487 -0.00167,-1.66108 -0.029972,-2.49082 -0.045073,-1.32103 -0.2065288,-2.64382 -0.1136888,-3.96615 0.078558,-0.41484 0.1363231,-0.83402 0.235645,-1.24436 0.057307,-0.23678 0.1553348,-0.46162 0.2330609,-0.69247 0.066635,-0.1624 0.1581018,-0.31684 0.1999877,-0.48731 0.1616617,-0.65794 -0.1015283,-1.41391 -0.045475,-2.07431 -0.08884,-1.76816 -0.1858385,-3.47022 -0.00206,-5.24256 0.069229,-0.66767 0.3288707,-1.30233 0.4521687,-1.96215 0.085686,-0.45855 0.1477909,-0.92125 0.221692,-1.38184 0.5580575,-3.03834 1.5633805,-6.04329 1.3616738,-9.16379 0.037953,-0.85561 0.041222,-1.71333 0.1136881,-2.56675 0.024273,-0.28585 0.119848,-0.56144 0.1757,-0.84285 0.081145,-0.40884 0.1262914,-0.82548 0.2351278,-1.22783 0.014396,-0.0532 0.1230204,-0.0524 0.1260903,-0.10747 0.073256,-1.31437 -0.1920176,-1.42883 -0.7555092,-2.80398 -0.2676882,-0.61172 -0.5353638,-1.2233 -0.803052,-1.83502 -0.2495415,-0.39952 -0.5431163,-0.77512 -0.7487914,-1.1989 -1.0345197,-2.13151 -1.4305857,-4.4739 -1.4014657,-6.83525 -0.0082,-0.47384 -0.0093,-0.94792 -0.0248,-1.4216 -0.03639,-1.11165 -0.4066,-2.57649 0.286804,-3.55638 0.3436789,-0.52511 0.0589,-0.004 0.102319,-1.24798 0.06754,-1.93514 0.615187,-3.78148 0.7704964,-5.70767 0.1266912,-0.94197 0.1957639,-1.77776 0.427364,-2.67941 0.5720204,-2.22705 1.4796355,-4.34475 2.1988322,-6.52521 0.1481262,-0.43749 0.3279172,-0.86561 0.4444172,-1.31257 0.1582447,-0.60711 0.1441141,-1.24767 0.258899,-1.86449 0.2756662,-1.48133 0.8590365,-2.87896 1.5378907,-4.2173 0.9127312,-2.17202 1.7788043,-4.36661 2.2479248,-6.68592 0.059284,-0.29308 0.1500889,-0.58264 0.168982,-0.88106 0.023779,-0.37563 -0.027494,-0.752 -0.041341,-1.1281 0.3467184,-0.89893 0.6685814,-1.8079 1.0397298,-2.69701 0.0320804,-0.0768 0.13868076,-0.20682 0.2056722,-0.20566 0.004502,-0.0217 0.008363,-0.0435 0.0129191,-0.0651 0.11307397,-0.1374 0.22780593,-0.27337 0.34209799,-0.40979 0.0233384,-0.21725 0.0485563,-0.46088 0.0609782,-0.59378 0.008257,-0.0883 0.0306544,-0.1751 0.045992,-0.26252 0.0178472,-0.13948 0.0255339,-0.28016 0.0532267,-0.41804 0.0143484,-0.0715 0.23667515,0.11798 0.21290691,0.0491 -0.134272,-0.38909 -0.40157584,-0.72511 -0.52348226,-1.11829 -0.42176454,-1.36024 -0.34768851,-1.57614 -0.3519165,-2.82411 -0.0113056,-1.80892 -0.0734995,-3.61878 0.0888835,-5.42499 0.6724977,-0.54133 -0.44392884,0.24718 1.10019124,0.91467 0.006298,0.003 0.0132638,0.004 0.0196371,0.007 -1.75843728,-2.9505 0.0168319,-5.61943 -1.04851481,-3.92533 -0.0487431,0.42709 -0.0355718,0.86569 -0.14624428,1.28106 -0.0491244,0.18436 -0.0390052,-0.38028 -0.0434082,-0.57102 -0.005456,-0.23638 0.005114,-2.3109 0.0821655,-2.37609 0.0557153,-0.0472 0.13853279,-0.10396 0.21032309,-0.15709 -0.0243798,-0.13173 -0.0476543,-0.26442 -0.0826823,-0.35348 -0.19307067,-0.4908 -0.37790418,-0.98518 -0.54415278,-1.48569 -0.528776,-1.592 -1.0874946,-3.2799 -1.1058756,-4.96662 0.3106205,0.24148 1.0663719,1.09421 0.931726,0.7245 -0.2026244,-0.55633 -0.9706725,-0.78504 -1.1580689,-1.34667 -0.5867564,-1.75858 0.1198167,-2.97442 0.5534547,-4.59714 0.3145239,-1.177 0.6007578,-2.36127 0.9012369,-3.54192 0.35670592,-1.58882 0.76141709,-3.1678 1.07021889,-4.76663 0.42399299,-2.19525 0.60855026,-4.43042 0.96376545,-6.63784 0.25440266,-1.58091 0.63080296,-2.88345 0.61184896,-4.52892 -0.00794,-0.68954 -0.207713,-1.36364 -0.3116089,-2.04534 -0.47381911,-3.50808 -0.90195022,-6.98132 -1.0598836,-10.52391 -0.15512116,-3.47951 0.32652615,-4.07606 -0.75447589,-7.96541 -0.40103291,-1.44288 -1.17893001,-2.75378 -1.76836741,-4.13049 -1.6978374,-4.70226 -2.8270169,-7.14261 -3.727938,-11.86646 -0.534594,-2.8031 -1.0466506,-5.61988 -1.2903604,-8.46307 -0.1845612,-2.15307 -0.1047605,-4.32482 0.0093,-6.48279 0.530447,-10.03559 0.4317897,-8.18407 2.4479128,-16.53077 1.242454,-5.14374 6.4385194,-3.88853 5.19606511,1.25521 -1.96849721,8.14956 -1.86723671,6.22292 -2.31717111,15.71842 -0.095296,2.01104 -0.1718095,4.03482 0.0093,6.03993 0.2319504,2.568 0.7262092,5.10829 1.22628166,7.63778 0.8569749,4.33481 1.88705014,6.53122 3.47110594,10.86755 2.051163,4.76414 2.033333,3.92142 2.7497029,9.94617 0.1529895,1.28667 0.029927,2.59191 0.093534,3.88606 0.1637826,3.33235 0.5646658,6.59435 1.0123413,9.89502 0.099605,0.65191 0.2886668,1.29604 0.2986898,1.95543 0.047937,3.15349 -0.199077,3.51854 -0.6320028,6.26319 -0.3381875,2.14403 -0.5223698,4.31329 -0.9332759,6.44457 -0.3356375,1.74088 -0.7648321,3.46228 -1.147217,5.19348 -0.462579,1.82245 -0.9914977,4.0627 -1.576648,5.92264 0.1433622,0.29297 0.2853872,0.58616 0.416512,0.88366 -0.033924,1.45134 0.4733362,2.84284 0.932243,4.19975 0.081473,0.24091 0.1861333,0.47353 0.2899047,0.70642 0.016089,-0.007 0.044672,-0.0199 0.00103,0.003 0.1249879,0.28051 0.2488803,0.56084 0.3333131,0.85527 0.1051756,0.36676 0.1658506,0.74527 0.2485636,1.11776 -1.8009298,0.72186 -2.9055275,1.14493 -3.70158291,1.44642 0.26743451,-0.0374 0.69644081,-0.0332 0.99942221,0.0605 0.7918407,-0.10544 1.6683754,-0.16137 2.4473961,-0.0522 0.3470209,0.0486 -0.042393,0.6993 -0.052193,1.04955 -0.025307,0.90498 0.039996,0.86255 -0.014986,1.0387 0.1541745,0.70321 0.091309,1.49006 0.1333254,2.13424 -0.1531671,1.74644 -0.1069504,3.49562 -0.087333,5.24465 0.00124,0.36031 -0.1587376,1.16226 0.1865521,1.55287 0.03989,0.0451 -0.014118,-0.23847 0.00362,-0.18087 0.1626811,0.52803 0.3340153,1.05643 0.4335653,1.59991 0.1098544,0.59973 0.01053,1.31304 -0.040307,1.911 -0.1014053,1.23428 -0.2674724,2.58398 -1.1653036,3.46903 -0.043009,0.12412 -0.089358,0.24699 -0.1441773,0.3664 -0.060158,0.13097 -0.2170766,0.31189 -0.38809,0.48987 0.07129,3.43811 -1.4870955,7.02361 -2.76985697,10.13323 -0.65752267,1.42179 -0.80343764,1.57377 -1.19734293,2.92129 -0.1623972,0.55555 -0.0867161,1.18409 -0.2273763,1.74511 -0.1885127,0.75187 -0.4261493,1.49074 -0.6392374,2.23602 -0.673187,2.14977 -1.6200592,4.21362 -2.1631755,6.40324 -0.1172964,0.47289 -0.2503125,1.74122 -0.2749185,1.93529 -0.048576,1.47868 -0.5165921,2.90491 -0.7012493,4.36147 -0.2693477,0.48139 0.05237,0.96846 0.00259,1.44902 -0.054809,0.52903 -0.1660273,1.05079 -0.2490803,1.57612 -0.09413,0.25972 -0.1892065,0.51933 -0.2826703,0.77928 0.020331,0.086 0.040166,0.2186 0.056328,0.43048 0.070866,0.92905 0.063566,1.54895 0.083199,2.54248 -2.4e-6,1.17534 0.096437,2.75866 0.4671549,3.87263 0.592041,1.77903 0.2528803,0.25138 0.7958172,1.31051 0.4309033,0.84058 0.8051924,1.7091 1.2076781,2.56368 0.9916438,1.87153 1.3311498,3.8608 1.0510986,5.9464 -0.1060639,0.78986 -0.3996838,1.55149 -0.4609538,2.34612 -0.041735,0.5412 -0.0023,1.0855 -0.00362,1.62832 0.2276548,3.39836 -0.8493398,6.66663 -1.4459064,9.97199 -0.225379,1.41306 -0.1907043,1.32514 -0.5317506,2.83445 -0.066873,0.29597 -0.1952466,0.5801 -0.2242756,0.88212 -0.09307,0.9683 0.1146714,2.66772 0.1638141,3.64318 0.1738066,1.45807 0.044671,2.76524 -0.3224609,4.18579 -0.408273,1.57975 -0.2801602,0.47755 -0.3632851,1.44024 0.1356616,1.35315 0.1931019,3.08713 0.2129067,4.57956 0.015079,1.13618 -0.060249,0.85291 0.1105877,1.40766 H 73.418259 c 0.659207,-0.56983 1.343811,-1.10892 2.054654,-1.65002 1.195535,-0.82224 1.011211,-0.69003 2.310455,-1.60819 0.281183,-0.1987 0.598686,-0.35512 0.841291,-0.59944 0.360473,-0.363 0.551963,-0.96422 0.856279,-1.36993 0.428191,-0.57084 0.899757,-1.10762 1.349787,-1.6614 1.071846,-1.15609 0.924981,-1.03912 2.156458,-2.17815 0.242133,-0.22397 0.545097,-0.38905 0.744659,-0.65165 0.09201,-0.12112 0.05302,-0.30006 0.09043,-0.44751 0.0392,-0.15452 0.09027,-0.3056 0.139009,-0.45733 0.160197,-0.4988 0.325178,-0.996 0.487826,-1.49397 0.248875,2.53579 0.40799,-2.11937 0.358119,-1.58131 -0.06589,0.71096 0.07886,1.43248 -0.203089,-0.57981 -0.159113,-1.13562 -0.105064,-1.01457 -0.144693,-2.46909 0.197509,-1.6042 -0.595461,-3.02184 -0.990121,-4.5279 -0.154765,-0.5906 -0.275656,-1.18959 -0.413412,-1.7844 -0.07549,-0.40545 -0.150852,-0.811 -0.226343,-1.21645 -0.06357,0.0236 -0.197887,0.003 -0.190685,0.0708 5.29e-4,0.004 0.0033,0.0103 0.0041,0.0151 0.0816,0.13123 0.16383,0.26238 0.238228,0.39687 0.07499,0.13555 -0.207023,-0.23098 -0.238228,-0.39687 -0.362151,-0.58238 -0.765924,-1.14565 -0.986502,-1.7911 -0.199887,-0.58492 0.0396,-1.25786 -0.141078,-1.84899 -0.347308,-1.53593 -0.287679,-3.14904 -0.24133,-4.71342 0.0093,-0.31374 -0.08004,-0.65087 0.03979,-0.94102 0.428408,-1.03724 1.051796,-1.98257 1.577684,-2.97397 0.581343,-0.66886 2.283058,-2.25377 2.570901,-3.21429 0.06988,-0.23317 -0.151638,-0.38187 -0.14056,-0.59891 0.02635,-0.51652 0.101052,-1.02989 0.151413,-1.54461 0.05117,-0.32962 0.02928,-0.679 0.153479,-0.98859 0.900642,-2.24493 2.151743,-4.60332 3.907772,-6.31796 1.14508,-1.11805 1.124172,-0.27246 0.984951,-1.26089 1.194374,-2.42941 0.601395,-5.14213 0.438216,-7.72409 -0.131336,-1.70929 -0.04846,-3.35391 0.381373,-5.01415 0.413063,-1.59546 0.339064,-0.44796 0.341064,-1.72857 -0.183504,-3.09618 -0.205285,-6.19371 -0.176215,-9.29402 0.04302,-2.19025 0.01664,-4.38071 0.01394,-6.57117 0.01934,-0.65714 0.05295,-1.55202 -0.377238,-2.13166 -0.34562,-0.4657 -0.274434,-0.0266 -0.594797,-0.49454 -0.333478,-0.4871 -0.615,-1.00761 -0.922422,-1.51154 -0.125658,-0.34395 -0.271129,-0.68148 -0.37724,-1.03198 -0.192355,-0.63537 -0.246944,-1.30796 -0.447,-1.94095 -0.372423,-1.17838 -0.935464,-2.3317 -1.382861,-3.48351 -0.147429,-0.95274 -0.925452,-1.21615 -1.500685,-1.83917 -0.392906,-0.42553 -0.750258,-0.88225 -1.125511,-1.32344 -2.319912,-3.48533 -5.474875,-6.28703 -8.26203,-9.37618 -0.322681,-0.39142 -0.677167,-0.75887 -0.967899,-1.17459 -2.982836,-4.26508 0.06549,-0.0918 -1.896007,-3.26853 -0.857329,-1.38848 -0.895694,-1.14665 -1.753899,-2.33423 -0.435279,-0.60233 -0.838657,-1.22706 -1.257805,-1.84071 -0.641107,-1.38464 -1.83071,-2.40996 -2.64945,-3.66644 -0.525659,-0.80671 -1.638607,-2.72475 -2.04587,-3.78118 -0.306228,-0.79433 -0.529574,-1.61864 -0.794266,-2.42774 -0.130455,-0.53075 -0.282508,-1.05656 -0.391191,-1.59216 -0.08868,-0.43703 -0.421217,-2.36235 -0.444418,-3.0453 -0.02357,-0.69397 -0.0046,-1.38903 0.01707,-2.08306 0.01442,-0.46204 0.108789,-0.922 0.09095,-1.3839 -0.0118,-0.3057 -0.11955,-0.60019 -0.179319,-0.9002 -0.701791,-2.03869 -0.349226,-4.24058 -0.281636,-6.3464 -0.186806,-2.75399 0.318667,-5.44666 0.988052,-8.10493 0.167167,-0.92874 0.731433,-1.82274 0.826823,-2.76571 0.03788,-0.37444 -0.100062,-0.74666 -0.128672,-1.12189 -0.03457,-0.45339 -0.05781,-0.90741 -0.08682,-1.36117 -0.01712,-0.30409 -0.0062,-0.61093 -0.05168,-0.91208 -0.133988,-0.88823 -0.237681,-0.77605 -0.422196,-1.55598 -0.412218,-1.74242 -0.707993,-3.51071 -1.03043,-5.27101 -0.504582,-3.34015 -0.860566,-6.69065 -1.393712,-10.02987 -0.178056,-1.1152 -0.478652,-2.21488 -0.558622,-3.3414 -0.09637,-1.35742 0.02098,-2.72164 0.03152,-4.08244 0.13122,-0.77854 0.200708,-1.5702 0.393774,-2.33577 0.294635,-1.16832 0.684951,-2.31103 1.066086,-3.45406 0.259998,-0.77972 0.708332,-1.50347 0.856276,-2.31201 0.536485,-2.93184 -0.06547,-3.08083 0.06511,-5.80789 0.07365,-1.538 0.291674,-3.06536 0.4377,-4.59817 1.136727,-4.62833 0.604163,-9.33743 0.448551,-14.02188 -5.29e-4,-0.0973 0.0038,-0.19479 0.0083,-0.2925 H 9.5022622 c -0.5308893,0.52866 -1.0648029,1.05434 -1.5911171,1.5875 -0.2393212,0.24797 -0.4779264,0.49668 -0.7183025,0.74361 -0.3064689,0.31486 -0.6142963,0.62833 -0.9224242,0.94155 -0.00249,0.003 -0.00674,0.008 -0.0093,0.0109 -0.5462357,1.43385 -0.3617457,1.36876 -2.4871865,1.99162 -0.032719,0.01 -0.1023623,0.0122 -0.1917197,0.0109 0,0 -5.292e-4,0 -5.292e-4,0 -0.4240922,0.36441 -0.3745413,0.24013 -1.6893025,0.60359 -2.50155889,0.69149 -1.39419882,-0.98076 -0.2098063,-2.66755 -0.1603766,-0.27189 -0.3120247,-0.52266 -0.4304647,-0.68781 0.037382,-0.0981 0.069117,-0.19884 0.099736,-0.30076 -0.094272,-0.18192 -0.1694982,-0.37078 -0.2108398,-0.57155 -0.059549,-0.28916 0.1085816,-0.66596 0.3875732,-1.07228 -0.337799,0.0985 -0.68953536,0.16547 -0.99632156,0.33486 -0.10816252,0.0597 -1.55599074,1.69643 0.15554605,-0.21548 0.35041921,-0.13036 0.69838811,-0.26688 1.04748131,-0.401 0.079516,-0.10181 0.1666163,-0.20494 0.2552815,-0.308 z m 58.8873614,2.23345 c 0.1350503,0.26065 0.3119246,0.50621 0.4991944,0.74777 1.0440181,-1.48421 2.0099711,-2.88806 0.4893758,-2.60966 -0.1456113,0.0827 -0.2786407,0.18047 -0.3829224,0.3116 -0.3457381,0.43473 -0.4435841,1.01089 -0.6056478,1.55029 z m 0.4991944,0.74777 c -0.056859,0.0808 -0.1115745,0.15978 -0.1684652,0.2408 0.5867565,0.99478 1.3185085,2.35818 1.2247314,1.62057 -0.09006,-0.70837 -0.6008584,-1.27394 -1.0562662,-1.86137 z m 0.1064534,104.33264 c -0.3318884,0.0442 -0.6479981,0.0949 -0.9343098,0.14933 0.4179933,0.10555 0.8657307,0.11708 1.2991455,0.1659 -0.017417,-0.0363 -0.032415,-0.0719 -0.050643,-0.10853 -0.047181,-0.0948 -0.1653715,-0.16069 -0.3141927,-0.2067 z m -0.9343098,0.14933 c -0.077146,-0.0196 -0.15418862,-0.0385 -0.22892664,-0.0656 -0.0500274,-0.0183 -0.0704835,-0.0362 -0.0744141,-0.0532 -1.68214683,0.63426 -1.09734295,0.38505 0.30334074,0.11885 z M 0.7198527,485.9202 c 0.0673577,-0.0254 0.16316941,-0.0625 0.23822837,-0.0909 -0.14813034,0.0206 -0.24705006,0.0528 -0.23822837,0.0909 z m 3.3579345,-3.51038 c -3.704e-4,0 -6.615e-4,-0.003 -0.00103,-0.003 -0.0971,0.044 -1.2687393,0.61828 -4.75371499,2.28203 0.0248539,0.0869 0.0821142,0.18757 0.14159344,0.28887 1.30165478,-0.89783 4.19458525,-2.35362 4.61315505,-2.56833 z M 70.765707,378.57586 c -0.0031,0.0417 -0.0033,0.0819 -0.0072,0.12401 0.145421,4.91577 0.705168,9.86549 -0.471805,14.72367 -0.137972,1.30069 -0.352178,2.59553 -0.413927,3.90207 -0.231534,4.89916 0.709361,1.85513 -0.397394,7.83416 -0.133069,0.71889 -0.530047,1.36281 -0.76791,2.05414 -0.320821,0.93242 -0.639112,1.86711 -0.907955,2.81586 -0.136393,0.48127 -0.204317,0.9794 -0.30644,1.46915 -0.03461,1.03349 -0.177732,2.06915 -0.103871,3.10057 0.08242,1.15099 0.389689,2.2746 0.570508,3.41426 0.521772,3.28869 0.882999,6.58538 1.367359,9.87539 0.288393,1.57443 0.533934,3.17336 0.902787,4.73199 0.426974,1.80422 0.281401,0.38526 0.629418,2.75747 0.04231,0.28826 0.03275,0.58192 0.04909,0.8728 0.05112,0.80582 0.171733,1.60965 0.156062,2.41692 -0.03089,1.5911 -0.370173,3.01114 -0.922941,4.49482 -0.603319,2.31881 -1.00607,4.55774 -0.824754,6.96235 -0.06455,1.82515 -0.391734,3.67559 0.235644,5.4405 0.07211,0.66312 0.186676,1.32315 0.216008,1.98956 0.03717,0.84439 -0.141322,1.68754 -0.126092,2.53264 0.02188,1.21362 0.351199,2.41943 0.617018,3.5941 0.480346,1.59007 0.995622,3.07025 1.912544,4.47673 0.896487,1.37514 2.176581,2.51293 2.904215,4.0106 1.086977,1.61565 2.331516,3.10968 3.359486,4.76613 1.515014,2.44125 -0.956607,-0.94181 1.254704,2.28512 0.244819,0.35727 0.548301,0.67003 0.822687,1.0051 2.837493,3.2099 6.133844,6.05139 8.501291,9.66402 0.377941,0.71559 0.02498,0.17565 0.843875,0.91053 1.106908,0.99338 2.081038,2.14895 2.541447,3.59307 0.747824,1.92926 1.656858,3.83408 1.952853,5.89886 0.03663,0.70652 -0.05917,-0.0482 0.800986,1.11053 1.257782,1.69445 1.799492,3.38627 1.709973,5.51233 0.0027,2.20943 0.02871,4.41934 -0.01447,6.62853 -0.03087,3.26274 0.05449,6.5178 0.149863,9.7777 -0.08598,0.62725 -0.139795,1.25955 -0.257866,1.88154 -0.08291,0.43674 -0.377536,0.816 -0.430466,1.26246 -0.167376,0.88815 0.0114,1.83983 -0.01757,2.7342 0.231375,3.84008 0.786315,7.14044 -1.150835,10.73785 -0.554638,0.7606 -1.094642,1.53146 -1.663464,2.2815 -0.02919,0.0385 0.07484,-0.17222 0.03927,-0.13951 -0.977104,0.89802 -0.925968,1.0754 -1.759064,2.33629 -0.278691,0.42178 -0.630076,0.80026 -0.852662,1.25418 -0.107953,0.22014 -0.07885,0.48406 -0.118338,0.72605 -0.04004,0.32141 -0.09551,0.64135 -0.120406,0.9643 -0.03483,0.45185 0.0272,0.9136 -0.05891,1.35855 -0.4522,2.33659 -1.629998,3.93996 -3.349665,5.54181 -0.201533,0.0394 -0.490297,-0.0518 -0.604615,0.11885 -0.155536,0.23212 -0.02676,0.55787 -0.03566,0.83714 -0.0415,1.30439 -0.120706,2.63898 0.199472,3.91604 0.03544,0.42011 0.09588,0.83879 0.120922,1.25937 0.74584,0.82547 1.219161,1.76191 1.333252,3.01789 0.524327,2.45721 1.688827,4.81076 1.531691,7.37888 0.0024,0.3687 -0.01151,0.73766 0.0072,1.10588 0.04459,0.87649 0.329184,1.77287 0.307475,2.64893 -0.02604,1.05037 -0.288435,1.67079 -0.59118,2.64636 -0.176363,0.53359 -0.728136,2.34056 -1.074869,2.95381 -0.35669,0.6309 -0.766001,1.23362 -1.209744,1.8066 -0.1548,0.1999 -0.387022,0.32552 -0.573609,0.4961 -0.999847,0.91416 -0.865629,0.80375 -1.727544,1.72032 -0.310486,0.36107 -0.621239,0.72205 -0.931725,1.08315 -0.256844,0.39603 -0.477456,0.8179 -0.770496,1.18803 -0.327114,0.41312 -0.669668,0.81542 -1.029911,1.20044 H 188.83085 V 378.57586 Z M 1.6030029,474.58035 c -0.012976,0.006 -0.01317,0.0335 0.00362,0.0889 0.1705677,0.56277 0.4179155,1.0967 0.675411,1.62729 0.039455,-0.2042 0.060698,-0.40767 0.022738,-0.60928 -0.061876,-0.32861 -0.5629573,-1.05563 -0.6847127,-1.10535 -0.00702,-0.003 -0.012728,-0.003 -0.017053,-0.003 z m -1.32446692,25.02844 c -0.004027,-0.0276 -0.44025801,0.40606 -0.52503256,0.60926 -0.0108467,0.0259 -0.0186245,0.053 -0.0273885,0.0796 0.17793613,-0.21331 0.35425035,-0.42797 0.52503254,-0.64699 0.0193405,-0.0249 0.0279638,-0.0379 0.0273885,-0.0419 z m -1.12189535,1.52858 c -0.005032,0.008 -0.0114647,0.0151 -0.0134358,0.0233 -0.092425,0.37796 -0.32511623,1.52191 -0.23409423,1.14361 0.0930081,-0.38658 0.16821639,-0.77719 0.24753009,-1.16686 z m 5.13250337,1.10535 c -0.00478,0.003 -0.015896,0.0225 -0.034623,0.0636 -0.1642991,0.35967 -0.2628312,0.74552 -0.3803385,1.12395 0.025249,-0.0233 0.071896,-0.0625 0.091467,-0.0817 0.084325,-0.30401 0.3569751,-1.12506 0.3234947,-1.10588 z" />
    </clipPath>
  </defs>
  <sodipodi:namedview
     id="base"
     pagecolor="#ffffff"
     bordercolor="#666666"
     borderopacity="1.0"
     inkscape:pageopacity="0.0"
     inkscape:pageshadow="2"
     inkscape:zoom="0.98994948"
     inkscape:cx="170.21082"
     inkscape:cy="176.47288"
     inkscape:document-units="mm"
     inkscape:current-layer="layer1"
     inkscape:document-rotation="0"
     showgrid="false"
     showguides="false"
     inkscape:window-width="1366"
     inkscape:window-height="704"
     inkscape:window-x="0"
     inkscape:window-y="747"
     inkscape:window-maximized="1" />
  <metadata
     id="metadata5">
    <rdf:RDF>
      <cc:Work
         rdf:about="">
        <dc:format>image/svg+xml</dc:format>
        <dc:type
           rdf:resource="http://purl.org/dc/dcmitype/StillImage" />
        <dc:title />
      </cc:Work>
    </rdf:RDF>
  </metadata>
  <g
     inkscape:label="Layer 1"
     inkscape:groupmode="layer"
     id="layer1"
     transform="translate(-45.112477,-41.627026)">
    <g
       id="g1821"
       style="fill:#287c95;fill-opacity:1">
      <path
         style="fill:#287c95;stroke-width:0.999996;fill-opacity:1"
         d="m 82.829445,101.71789 c -0.781402,0.5576 -1.233533,0.7035 -1.818244,0.5865 -0.4315,-0.086 -0.499201,-0.1554 -4.145817,-4.231246 -5.102989,-5.70363 -5.57721,-6.316571 -5.852491,-7.564584 -0.096,-0.4348 -0.068,-0.705401 0.099,-0.959701 0.232201,-0.354201 0.232201,-0.354201 -4.279907,-5.2731 -2.618535,-2.854635 -4.743369,-5.092219 -5.063149,-5.331809 -0.980202,-0.734502 -1.992034,-0.624801 -3.059286,0.3317 -0.482701,0.432001 -1.353012,0.696602 -1.883873,0.572001 -1.114372,-0.2617 -1.450403,-0.570301 -4.177558,-3.835897 -1.755273,-2.101843 -2.172564,-2.672624 -4.835038,-6.613372 -2.221854,-3.288575 -2.530095,-3.853936 -2.669675,-4.896698 -0.180301,-1.347013 0.3863,-2.160314 2.798665,-4.017418 1.067802,-0.822001 1.327032,-0.970501 1.828553,-1.047231 0.870502,-0.133201 1.955864,0.3492 3.451946,1.534402 4.643749,3.678817 5.56724,4.478798 7.802054,6.758532 3.358566,3.426087 3.739777,3.931568 3.779727,5.0119 0.025,0.668301 -0.1456,0.992001 -1.012782,1.925123 -0.823501,0.886102 -0.976401,1.318492 -0.749901,2.120644 0.1322,0.468201 0.453901,0.857801 3.930017,4.759468 2.082304,2.337255 4.257928,4.810489 4.834729,5.49608 1.023832,1.216962 1.055412,1.243972 1.331272,1.138362 0.815302,-0.3121 1.877793,0.137201 3.119596,1.319343 0.4284,0.4078 0.872501,0.811101 0.987101,0.896201 0.114601,0.085 0.811702,0.767502 1.549263,1.516443 0.737502,0.748901 1.472203,1.474643 1.632583,1.612773 0.160301,0.1381 1.235662,1.146052 2.389565,2.239844 2.062613,1.955133 2.100473,1.997654 2.243324,2.519564 0.2735,0.999402 -0.509601,2.205106 -2.229374,3.432266 z m 1.281922,-2.175263 c 0.1438,-0.227601 0.2478,-0.611501 0.2313,-0.853102 -0.03,-0.439301 -0.03,-0.439301 -0.583601,0.011 -0.404001,0.328601 -0.587001,0.413301 -0.677501,0.313501 -0.093,-0.1027 0.0033,-0.252601 0.389101,-0.602001 0.2822,-0.255901 0.503301,-0.518101 0.491401,-0.582601 -0.035,-0.190301 -0.417201,-0.247501 -0.610802,-0.091 -0.099,0.079 -0.3447,0.2812 -0.5472,0.4487 -0.254401,0.210401 -0.408001,0.260701 -0.496501,0.163001 -0.100001,-0.110301 -0.0017,-0.256501 0.4477,-0.663602 0.486401,-0.441 0.546001,-0.537301 0.383401,-0.619401 -0.1059,-0.054 -0.2625,-0.1744 -0.348001,-0.2688 -0.1161,-0.1281 -0.3023,-0.091 -0.734901,0.1458 -0.728301,0.398801 -0.881901,0.1797 -0.2348,-0.335101 0.435701,-0.3465 0.450801,-0.3831 0.2507,-0.603801 -0.1823,-0.201 -0.2811,-0.194 -0.684801,0.049 -0.297201,0.178601 -0.534401,0.236601 -0.641001,0.156501 -0.1417,-0.1064 -0.098,-0.176301 0.2706,-0.430001 0.388201,-0.2674 0.417101,-0.319901 0.246401,-0.448101 -0.134101,-0.1007 -0.338001,-0.058 -0.665101,0.1384 -0.461901,0.277701 -0.699702,0.266801 -0.536401,-0.025 0.045,-0.08 0.2493,-0.2412 0.4538,-0.357 0.366601,-0.207701 0.367401,-0.214701 0.059,-0.511701 -0.3044,-0.293501 -0.3227,-0.291601 -0.725301,0.073 -0.513901,0.465901 -0.705601,0.2362 -0.2294,-0.274901 0.3011,-0.3233 0.3027,-0.3622 0.026,-0.667701 -0.287101,-0.3167 -0.303201,-0.3161 -0.679201,0.025 -0.266701,0.241801 -0.405601,0.301701 -0.451701,0.194801 -0.037,-0.085 0.086,-0.292301 0.2724,-0.461701 0.331401,-0.300401 0.331401,-0.315001 0.0042,-0.648101 -0.2824,-0.287501 -0.3676,-0.311101 -0.544401,-0.150801 -0.295,0.267501 -0.842601,0.464101 -0.953001,0.342301 -0.062,-0.068 0.069,-0.2105 0.3892,-0.423501 0.444001,-0.2957 0.467601,-0.3372 0.298701,-0.523401 -0.201801,-0.2226 -0.292901,-0.2011 -0.911802,0.215201 -0.486501,0.3272 -0.555901,0.339 -0.599801,0.1019 -0.021,-0.1117 0.1463,-0.306801 0.467101,-0.546101 0.488601,-0.364301 0.494201,-0.377901 0.2628,-0.633201 -0.2251,-0.248201 -0.2452,-0.244001 -0.415,0.087 -0.201501,0.393301 -0.953002,0.751301 -1.056532,0.503201 -0.058,-0.1384 0.0033,-0.194801 0.720301,-0.663301 0.378901,-0.247601 0.378901,-0.247601 -0.045,-0.646302 -0.423701,-0.3986 -0.423701,-0.3986 -0.791401,-0.065 -0.276801,0.251001 -0.402101,0.295501 -0.506901,0.179901 -0.113501,-0.125201 -0.063,-0.203401 0.2755,-0.424001 0.414701,-0.270501 0.414701,-0.270501 0.04,-0.568801 -0.3504,-0.279401 -0.404701,-0.278901 -0.855001,0.0081 -0.264501,0.1685 -0.560901,0.3025 -0.658702,0.2977 -0.2619,-0.013 -0.038,-0.3807 0.386201,-0.634401 0.477701,-0.2857 0.1553,-0.2649 -0.486901,0.031 -0.2832,0.130701 -0.547201,0.201901 -0.586701,0.158401 -0.098,-0.107701 0.1261,-0.295701 0.554501,-0.465801 0.355701,-0.1412 0.355701,-0.1412 -0.022,-0.162101 -0.2081,-0.012 -0.747801,0.174301 -1.203702,0.414301 -0.973102,0.512501 -1.074712,0.714402 -0.770801,1.532063 0.285,0.766801 0.861401,1.480153 4.375028,5.4141 1.772323,1.984353 3.481256,3.953159 3.797626,4.375109 0.716002,0.9549 1.274153,1.22125 1.948734,0.9298 0.537501,-0.2322 1.861133,-1.40487 2.211174,-1.958913 z m -3.297936,-0.998102 c -0.466601,-0.083 -0.628301,-0.270701 -0.607001,-0.705001 0.026,-0.523001 0.2627,-0.774302 0.690501,-0.731902 0.409901,0.041 0.664801,0.335101 0.626301,0.723702 -0.037,0.3689 -0.428901,0.763001 -0.709801,0.713101 z m 0.1719,-0.800201 c -0.015,-0.081 -0.091,-0.089 -0.1687,-0.019 -0.078,0.071 -0.1292,0.194501 -0.1143,0.275401 0.015,0.081 0.091,0.089 0.1687,0.019 0.078,-0.071 0.1292,-0.1945 0.1143,-0.275401 z M 78.388897,95.68817 c -0.335701,0.1239 -0.652202,-0.1005 -0.823502,-0.583901 -0.1821,-0.513701 -0.038,-0.742602 0.509901,-0.811802 0.815201,-0.1028 1.087702,1.110042 0.313601,1.395663 z m -0.101301,-0.824602 c -0.047,-0.052 -0.1492,-0.037 -0.227,0.034 -0.078,0.071 -0.103,0.170701 -0.056,0.222601 0.047,0.052 0.1492,0.037 0.227,-0.034 0.078,-0.071 0.103,-0.170701 0.056,-0.222601 z M 74.91485,92.233314 c -0.558001,0.2243 -1.116862,-0.859802 -0.657801,-1.275993 0.078,-0.07 0.326001,-0.1132 0.552001,-0.095 0.352001,0.028 0.426201,0.081 0.518401,0.370201 0.1354,0.424201 -0.041,0.851401 -0.412701,1.000822 z m -3.114015,-4.160988 c -0.266101,-0.3021 -0.640801,-0.755001 -0.832602,-1.006362 -0.1918,-0.2514 -2.179524,-2.508684 -4.417168,-5.016229 -3.966827,-4.445298 -4.072337,-4.573658 -4.224877,-5.140159 -0.229201,-0.851002 0.054,-1.631703 0.923501,-2.545255 0.380101,-0.3995 0.754502,-0.894701 0.832002,-1.100522 0.1814,-0.4814 0.044,-1.178472 -0.346801,-1.765693 -0.3491,-0.524101 -4.058187,-4.269487 -5.310749,-5.362729 -0.451401,-0.394001 -1.599893,-1.401823 -2.552145,-2.239574 -3.847757,-3.385117 -5.200249,-4.205948 -6.365401,-3.863177 -0.427701,0.1258 -0.757702,0.3714 -1.978644,1.472362 -1.336552,1.204972 -1.483243,1.371073 -1.668513,1.886774 -0.453901,1.263312 0.037,2.360234 2.751125,6.142501 0.718901,1.002022 1.673233,2.348284 2.120654,2.991695 0.946301,1.360823 3.832557,4.982239 4.593688,5.763731 1.134582,1.164932 1.987234,1.208592 3.477846,0.1781 1.298713,-0.897802 2.026624,-1.004112 2.988726,-0.436301 0.2606,0.1538 1.773793,1.740103 4.306777,4.514898 2.147734,2.352774 4.031798,4.394778 4.186788,4.537778 0.155,0.143001 0.604701,0.605201 0.999302,1.027022 0.574901,0.614501 0.745701,0.741502 0.859001,0.638801 0.108501,-0.098 0.028,-0.2565 -0.3424,-0.677601 z M 56.487687,77.241197 c -0.361501,-0.061 -0.544801,-0.200601 -1.165062,-0.885602 -0.404801,-0.447101 -0.910502,-1.082692 -1.123722,-1.412353 -0.2132,-0.3297 -0.800901,-1.149962 -1.306052,-1.822883 -0.505101,-0.672901 -1.241063,-1.704183 -1.635433,-2.291694 -0.798602,-1.189792 -1.308673,-1.876483 -2.348125,-3.161426 -1.152672,-1.424902 -1.248272,-2.391694 -0.2039,-2.062063 0.370701,0.117 0.651501,0.3675 1.767003,1.576803 0.729502,0.790701 1.507503,1.698653 1.728983,2.017623 0.648202,0.933502 1.493783,2.109804 3.402507,4.733339 1.127182,1.549302 1.708093,2.853505 1.433932,3.219305 -0.067,0.089 -0.3142,0.129001 -0.550101,0.089 z m 0.093,-0.885702 c -0.3197,-0.585001 -2.060143,-3.160256 -3.150275,-4.661338 -0.641502,-0.883302 -1.344823,-1.869334 -1.563043,-2.191264 -0.945002,-1.394033 -3.114886,-3.533577 -3.359166,-3.312106 -0.092,0.083 0.1647,0.468401 1.463442,2.194174 0.507001,0.673601 0.928702,1.262352 0.937202,1.308302 0.0085,0.046 0.809702,1.175982 1.780403,2.511195 2.967666,4.081967 3.593497,4.807788 3.903287,4.526918 0.071,-0.065 0.066,-0.233701 -0.012,-0.375901 z m 2.067934,-1.334692 c -0.422501,-0.042 -0.970202,-0.625302 -5.39317,-5.745931 -4.247937,-4.918009 -4.021377,-4.630278 -3.929957,-4.991069 0.072,-0.2838 0.122,-0.3102 0.521901,-0.2754 0.813202,0.071 1.295273,0.451101 3.813577,3.008665 2.192284,2.226414 5.168439,5.67441 5.57458,6.458372 0.471001,0.909201 0.1998,1.623033 -0.586901,1.545373 z m 0.2622,-1.139622 c -0.2988,-0.763102 -1.985683,-2.809775 -4.458048,-5.40869 -1.392722,-1.464003 -2.631624,-2.737775 -2.753134,-2.830585 -1.193153,-0.911502 -2.229364,-1.439023 -1.754584,-0.893302 0.106101,0.122 0.983702,1.128692 1.950084,2.237114 1.989523,2.281884 4.260168,4.964219 5.143449,6.076021 0.781302,0.983402 1.368333,1.464473 1.624643,1.331392 0.353401,-0.1835 0.366001,-0.2095 0.2475,-0.512 z m 2.128914,-1.173603 c -0.885701,-0.3304 -1.699263,-0.990901 -3.604706,-2.926345 -1.056952,-1.073602 -2.271304,-2.292304 -2.698555,-2.708235 -0.427301,-0.4159 -1.265632,-1.240942 -1.863063,-1.833363 -2.012504,-1.995594 -1.959304,-1.917913 -1.560963,-2.279064 0.683601,-0.619801 1.629353,-0.087 3.915927,2.205914 0.593901,0.595601 1.542703,1.513813 2.108404,2.040474 0.565701,0.5267 1.766183,1.719313 2.667744,2.650264 1.553183,1.603823 1.643593,1.717983 1.722804,2.175304 0.1057,0.610501 -0.160301,0.871802 -0.687602,0.675001 z m -0.077,-1.155672 c -0.470301,-0.710601 -1.542413,-1.880083 -2.702685,-2.948235 -0.568901,-0.523801 -1.266942,-1.166732 -1.551172,-1.428833 -0.284201,-0.2621 -1.119052,-1.051651 -1.855174,-1.754583 -2.088924,-1.994733 -2.895555,-2.529634 -3.283846,-2.177594 -0.1327,0.120301 -0.038,0.245901 0.791202,1.043952 0.518101,0.499001 1.523082,1.424223 2.233344,2.056104 0.710201,0.631901 1.927713,1.809093 2.705495,2.616015 2.402994,2.493074 2.851825,2.909775 3.357736,3.117345 0.607101,0.249101 0.705301,0.08 0.3052,-0.524201 z"
         id="path1614" />
      <path
         style="fill:#287c95;stroke-width:0.999998;fill-opacity:1"
         d="m 161.21263,71.897623 c 0.0495,0.44691 -0.15726,1.43884 -0.35824,1.71841 -0.0527,0.0733 0.0344,0.15781 0.274,0.26596 0.61086,0.27576 0.72668,1.10376 0.29184,2.08639 -0.3097,0.69984 -1.37875,2.02509 -2.16461,2.68335 -2.2431,1.87891 -8.7127,4.74411 -11.39557,5.04677 -0.34125,0.0385 -0.68157,0.15664 -0.8561,0.29708 -0.37822,0.30447 -0.83191,0.31734 -1.15079,0.0326 -0.25565,-0.22827 -0.25565,-0.22827 -3.81157,2.32424 -7.09157,5.09049 -6.99971,5.01958 -7.05167,5.44431 -0.0469,0.38335 -0.18613,0.58796 -0.6913,1.01581 -0.1867,0.15811 -0.25652,0.28631 -0.18958,0.34801 0.19486,0.1796 0.21198,0.78964 0.0301,1.07074 -0.18226,0.28165 -0.44977,0.54037 -1.50627,1.45666 -0.32219,0.27944 -0.71426,0.62699 -0.87129,0.77233 -1.71309,1.58556 -5.56569,4.478037 -6.52885,4.901787 -0.6702,0.29486 -1.27012,0.25031 -1.74829,-0.12983 -0.206,-0.16393 -0.70258,-0.74337 -1.10334,-1.287867 -0.83573,-1.13548 -0.86558,-1.29756 -0.39128,-2.12441 0.23527,-0.41015 0.53643,-0.67784 2.27956,-2.02604 1.10465,-0.85442 3.06644,-2.29946 4.35951,-3.21124 2.1586,-1.52208 2.39693,-1.66751 2.91168,-1.77682 0.45024,-0.0956 0.63848,-0.0691 0.95593,0.13477 0.39501,0.25361 0.39561,0.25354 0.77383,-0.0932 0.30772,-0.28212 0.45081,-0.34391 0.76501,-0.33026 0.21258,0.009 0.44255,0.0944 0.51105,0.18918 0.1202,0.16635 0.2225,0.10209 2.92565,-1.83839 1.5406,-1.10592 3.94059,-2.82483 5.33332,-3.81983 2.53224,-1.80905 2.53224,-1.80905 2.34349,-2.1916 -0.21152,-0.42867 -0.0718,-0.76565 0.44601,-1.07591 0.38443,-0.23035 1.14321,-1.62621 1.82054,-3.34917 0.77595,-1.97384 1.58175,-3.14585 4.33468,-6.30468 1.36139,-1.562108 2.40561,-2.340072 3.68038,-2.741943 1.62206,-0.511328 2.54538,-0.291326 2.92273,0.696468 0.15289,0.400284 0.1547,0.401115 0.69205,0.326494 0.2963,-0.04117 0.75633,-0.02512 1.02223,0.03561 0.61706,0.140924 1.06231,0.706333 1.1452,1.454221 z m -1.52373,-0.888336 c -1.07964,-0.154343 -1.16581,-0.124698 -1.36119,0.468576 -0.0914,0.27753 -0.40109,0.83077 -0.68818,1.22943 -1.13775,1.57982 -2.29465,2.67856 -5.4639,5.18916 -0.66661,0.52809 -1.21673,0.98896 -1.22248,1.02417 -0.005,0.0352 0.41099,-0.23582 0.92609,-0.60229 0.51508,-0.36649 1.00511,-0.69858 1.08897,-0.73796 0.0838,-0.0395 0.69507,-0.42275 1.35832,-0.85188 0.66322,-0.42913 1.33899,-0.85036 1.50166,-0.93609 0.16265,-0.0857 0.73261,-0.43513 1.26654,-0.77645 1.12593,-0.71976 1.79608,-1.03634 2.56734,-1.21274 0.55166,-0.12618 0.55166,-0.12618 0.77804,-0.64003 0.3044,-0.69095 0.37039,-1.49657 0.14781,-1.804602 -0.12756,-0.176526 -0.38194,-0.275366 -0.899,-0.349287 z m 1.07058,3.209036 c -0.14315,-0.0573 -0.32329,0.10529 -1.13167,1.02135 -0.88129,0.99869 -1.09975,1.18855 -2.62104,2.27797 -2.17376,1.55666 -6.25963,3.98411 -8.64083,5.13358 -0.90569,0.43719 -1.13935,0.63987 -0.80055,0.69443 0.28411,0.0457 3.20887,-0.85256 4.53817,-1.39386 2.30984,-0.94058 4.93817,-2.25639 6.10533,-3.0565 0.87751,-0.60151 1.67263,-1.36752 2.31971,-2.23473 0.76489,-1.02507 0.87451,-2.18468 0.23088,-2.44224 z m -3.47208,-4.524156 c -0.41243,-0.143138 -1.53415,0.09368 -2.36641,0.499612 -1.20007,0.58532 -1.92389,1.251151 -3.76605,3.464294 -2.0124,2.4177 -2.68174,3.39817 -3.20638,4.69697 -0.0944,0.23354 -0.40471,0.88748 -0.6897,1.45319 -0.54314,1.07815 -0.59221,1.31351 -0.13681,0.65616 0.31625,-0.45648 2.77073,-3.23719 3.33802,-3.78168 0.21399,-0.2054 0.45917,-0.44796 0.54483,-0.53903 0.0857,-0.0911 0.71831,-0.67026 1.40588,-1.2871 0.68757,-0.61682 1.33776,-1.21218 1.44487,-1.32299 0.56126,-0.58074 2.68109,-2.155289 3.32203,-2.467532 0.63318,-0.308452 0.69768,-0.361986 0.6989,-0.580079 0.002,-0.31623 -0.26956,-0.680887 -0.58919,-0.791819 z m -0.2492,1.979766 c -1.04708,0.61571 -1.73353,1.14821 -3.50808,2.72132 -1.89999,1.68432 -1.98671,1.7668 -2.98826,2.84152 -2.04316,2.1924 -3.21611,3.56223 -3.48911,4.07475 -0.30268,0.56827 -0.30268,0.56827 0.0244,0.26733 2.24837,-2.06873 3.19845,-2.87957 5.2627,-4.49133 2.10091,-1.6404 3.0826,-2.57318 4.55455,-4.32769 0.60479,-0.72083 0.93384,-1.264222 0.84231,-1.39089 -0.0295,-0.04076 -0.34389,0.09617 -0.69849,0.305 z m 1.65226,3.02072 c -0.69926,0.31539 -1.26524,0.64352 -3.05592,1.77167 -0.51449,0.32414 -0.96808,0.59256 -1.00797,0.59646 -0.0399,0.004 -1.04304,0.66591 -2.22924,1.4711 -1.79439,1.21805 -2.38156,1.66839 -3.49524,2.68069 -1.33853,1.21671 -1.33853,1.21671 -0.82329,1.01329 0.28342,-0.11185 0.88055,-0.4279 1.32698,-0.7023 0.44644,-0.27439 1.07829,-0.63863 1.40413,-0.80939 0.32583,-0.17077 0.97257,-0.54738 1.4372,-0.83692 0.46461,-0.28953 1.07168,-0.63628 1.34902,-0.77053 1.16765,-0.56522 4.41165,-2.81499 5.08426,-3.52603 1.25425,-1.3259 1.25566,-1.44985 0.01,-0.88806 z m -13.14308,7.77852 c -0.0611,0.23689 0.31483,0.99811 0.61928,1.25413 0.18097,0.15217 0.27232,0.1453 0.52839,-0.0397 0.3096,-0.22372 0.3096,-0.22372 -0.0119,-0.56998 -0.17683,-0.19044 -0.37322,-0.49265 -0.43647,-0.67155 -0.10134,-0.28655 -0.14677,-0.31602 -0.38182,-0.24747 -0.17196,0.0499 -0.28482,0.14783 -0.31751,0.27462 z m -11.54427,8.45048 c -0.0698,0.0221 -0.27277,0.17873 -0.45094,0.34854 -0.32397,0.3087 -0.32397,0.3087 -0.0153,0.80035 0.30865,0.49167 0.30865,0.49167 0.59877,0.27993 0.37537,-0.27381 0.44035,-0.45359 0.30493,-0.84244 -0.15763,-0.45257 -0.29159,-0.63214 -0.43745,-0.58638 z m -1.57067,0.69999 c -0.49465,-0.30279 -0.6715,-0.25116 -0.37406,0.1091 0.36963,0.4478 0.1677,0.52548 -0.36529,0.14051 -0.57308,-0.41388 -0.94363,-0.35256 -0.50622,0.0838 0.1728,0.1724 0.27572,0.36387 0.26682,0.49645 -0.0233,0.34857 -0.17455,0.36507 -0.31795,0.0347 -0.16247,-0.37425 -0.53674,-0.57305 -0.76642,-0.40707 -0.14191,0.10258 -0.12512,0.18196 0.0988,0.46714 0.14837,0.18898 0.26256,0.38826 0.25378,0.44284 -0.0348,0.21626 -0.30517,0.1009 -0.54663,-0.23326 -0.22857,-0.31633 -0.2776,-0.3359 -0.47827,-0.19089 -0.19589,0.14156 -0.19555,0.20032 0.003,0.47457 0.15797,0.21862 0.18573,0.34226 0.0921,0.40994 -0.0937,0.0678 -0.20236,0.003 -0.36032,-0.21608 -0.19509,-0.26997 -0.25543,-0.29189 -0.43884,-0.15935 -0.19015,0.13741 -0.1843,0.19039 0.0555,0.50067 0.3514,0.45474 0.19459,0.57583 -0.24152,0.18651 -0.24177,-0.21585 -0.38832,-0.27213 -0.4994,-0.19187 -0.11947,0.0863 -0.10394,0.18733 0.0647,0.42069 0.12204,0.1689 0.22638,0.36917 0.23187,0.44504 0.0153,0.21179 -0.17145,0.2961 -0.22328,0.10077 -0.025,-0.095 -0.15677,-0.2755 -0.29243,-0.40127 -0.18684,-0.17324 -0.29579,-0.19316 -0.44946,-0.0821 -0.2183,0.15774 -0.20194,0.37648 0.0547,0.73166 0.10095,0.13971 0.10935,0.23972 0.0222,0.26633 -0.0778,0.0237 -0.24496,-0.10354 -0.37843,-0.28823 -0.21699,-0.30027 -0.258,-0.3135 -0.44374,-0.14311 -0.17285,0.15857 -0.17074,0.24389 0.0136,0.54897 0.28284,0.4681 0.0364,0.56437 -0.27304,0.10666 -0.19616,-0.29017 -0.25219,-0.31413 -0.43146,-0.18459 -0.17264,0.12475 -0.17203,0.20538 0.004,0.4974 0.30105,0.50059 0.11191,0.6843 -0.2248,0.21834 -0.23838,-0.3299 -0.28547,-0.34957 -0.48746,-0.20362 -0.19516,0.14102 -0.19531,0.20068 -0.001,0.46929 0.3993,0.55259 0.0776,0.6713 -0.36062,0.13307 -0.15326,-0.18821 -0.21548,-0.18503 -0.50746,0.0258 -0.33279,0.24038 -0.33279,0.24038 -0.0243,0.56197 0.31702,0.33042 0.29355,0.48718 -0.0596,0.39616 -0.10724,-0.0277 -0.24172,-0.16738 -0.29886,-0.31047 -0.0897,-0.22471 -0.13014,-0.23678 -0.29633,-0.0885 -0.10589,0.0944 -0.24435,0.21695 -0.30772,0.27231 -0.0841,0.0735 -0.0404,0.17529 0.16174,0.37696 0.20027,0.19975 0.24403,0.30011 0.15804,0.36225 -0.1317,0.0951 -0.36586,-0.027 -0.55593,-0.29006 -0.0796,-0.11013 -0.18606,-0.12667 -0.29739,-0.0465 -0.13514,0.0976 -0.12714,0.20235 0.0361,0.47385 0.28529,0.47439 0.11716,0.69157 -0.19786,0.25561 -0.16155,-0.22357 -0.26354,-0.28977 -0.3205,-0.20804 -0.0483,0.0693 0.0202,0.2543 0.16226,0.4386 0.28244,0.36619 0.13794,0.59176 -0.22666,0.35384 -0.22274,-0.14535 -0.22274,-0.14535 -0.14547,0.13913 0.078,0.28773 0.75502,1.200537 1.22836,1.656627 0.30931,0.29805 0.96564,0.36886 1.51888,0.16388 0.76108,-0.28198 4.78993,-3.383887 6.75417,-5.200177 0.56103,-0.51877 1.23346,-1.13533 1.4943,-1.37015 0.38999,-0.35106 0.45279,-0.45663 0.35347,-0.59408 -0.0665,-0.0919 -0.0985,-0.22111 -0.0713,-0.28705 0.0744,-0.18016 -0.86636,-1.42596 -1.25763,-1.66546 z m -1.01817,2.89687 c -0.14416,0.41538 -0.54511,0.65278 -0.98335,0.58219 -0.37068,-0.0597 -0.38459,-0.074 -0.48353,-0.49664 -0.16118,-0.68838 0.0585,-0.98131 0.68111,-0.9084 0.52579,0.0615 0.91025,0.46417 0.78577,0.82285 z m -0.81212,-0.49249 c -0.19102,-0.0307 -0.25879,0.004 -0.29732,0.1537 -0.11163,0.43288 0.39352,0.66756 0.63645,0.29566 0.12664,-0.19385 -0.0285,-0.39935 -0.33914,-0.44939 z m -2.13189,2.31821 c 0.033,0.25487 -0.0236,0.39137 -0.22115,0.53417 -0.29656,0.21429 -0.81992,0.17802 -0.99857,-0.0692 -0.32873,-0.45493 0.13476,-1.17879 0.69688,-1.08826 0.37979,0.0611 0.46294,0.16027 0.52284,0.62329 z m -0.583,-0.27907 c -0.2403,-0.0161 -0.44076,0.26166 -0.3147,0.43611 0.11091,0.15345 0.39778,0.093 0.5317,-0.11192 0.12083,-0.18496 0.0392,-0.30699 -0.21699,-0.32418 z m -1.88542,1.95478 c -0.0602,0.37388 -0.83763,0.61098 -1.24421,0.37952 -0.4989,-0.28403 -0.35394,-0.93047 0.26395,-1.17714 0.38414,-0.15338 1.04661,0.3857 0.98026,0.79765 z m -0.62381,-0.48514 c -0.17605,-0.11502 -0.48972,0.0633 -0.47479,0.26985 0.0136,0.18911 0.38063,0.26351 0.58205,0.11793 0.17655,-0.12756 0.15128,-0.21891 -0.10728,-0.3878 z"
         id="path1630" />
      <g
         id="g1792"
         transform="rotate(4.7261124,39.567053,101.20463)"
         style="fill:#287c95;fill-opacity:1">
        <path
           style="fill:#287c95;stroke-width:1;fill-opacity:1"
           d="m 102.4204,100.06365 c -0.28873,-0.0454 -0.85212,-0.221647 -1.25199,-0.391897 -0.60704,-0.258429 -0.83915,-0.410794 -1.406298,-0.923139 -0.539115,-0.48702 -0.752751,-0.743091 -1.035476,-1.241058 -0.403085,-0.710014 -0.63514,-1.401814 -0.701966,-2.092772 -0.05148,-0.531885 0.03797,-0.712923 0.362149,-0.733182 0.315391,-0.01994 0.430448,0.149771 0.543323,0.800402 0.263152,1.517136 1.210488,2.757064 2.559718,3.350402 1.736,0.763471 3.56978,0.340908 4.80385,-1.106863 0.73619,-0.863746 1.05269,-1.714196 1.0772,-2.894648 0.0115,-0.551272 0.0496,-0.638078 0.32749,-0.745829 0.1193,-0.04632 0.21476,-0.01405 0.36952,0.125312 0.19742,0.177585 0.2079,0.214941 0.19394,0.692953 -0.022,0.759549 -0.13226,1.297634 -0.41681,2.034283 -0.20694,0.535721 -0.37156,0.800907 -0.84289,1.357739 -0.65347,0.77201 -1.09001,1.100309 -1.93686,1.45664 -0.72368,0.304507 -1.84692,0.436997 -2.64497,0.311737 z m -8.484558,-3.945586 c -0.960893,-0.04373 -1.773069,-0.37237 -2.01758,-0.816415 -0.12685,-0.230356 -0.132815,-0.287717 -0.055,-0.529157 0.383671,-1.19028 3.758031,-1.621792 4.93857,-0.631508 1.076935,0.90336 -0.627205,2.07894 -2.866003,1.97707 z m 17.439898,-1.089622 c -0.90657,-0.05202 -1.73844,-0.383564 -1.97951,-0.788952 -0.40047,-0.673307 0.36792,-1.368358 1.83273,-1.657792 1.05131,-0.207769 2.32727,-0.03757 2.95933,0.394708 1.27654,0.87304 -0.51974,2.183615 -2.81255,2.052036 z M 95.140468,93.261129 c -0.734015,-0.122496 -1.36908,-0.41666 -1.943893,-0.900404 -2.242229,-1.887001 -1.807222,-5.430311 0.820918,-6.686728 0.676258,-0.323294 1.796796,-0.409702 2.52502,-0.194776 2.741552,0.809331 3.822497,4.110767 2.084585,6.366833 -0.797428,1.035199 -2.244246,1.622376 -3.486636,1.415037 z m 2.627047,-1.003177 c 0.316779,-0.246276 0.442563,-0.595257 0.376493,-1.044501 -0.05027,-0.341517 -0.102354,-0.442321 -0.344563,-0.659628 -0.241722,-0.217431 -0.345507,-0.257409 -0.680081,-0.262015 -0.50243,-0.0069 -0.811023,0.205341 -0.97695,0.671656 -0.149769,0.421003 -0.138942,0.553647 0.07645,0.937974 0.314299,0.56073 1.063981,0.733306 1.548623,0.356517 z m -2.988139,-2.611304 c 1.057967,-0.305147 1.523845,-1.531405 0.970283,-2.553837 -0.679345,-1.254744 -2.495635,-1.150613 -3.020609,0.17323 -0.410471,1.035057 0.182208,2.185446 1.24114,2.409151 0.435631,0.09202 0.385257,0.09379 0.809191,-0.02848 z m 14.926824,2.656238 c -0.95645,-0.168729 -2.18253,-1.041249 -2.65471,-1.88922 -0.64745,-1.162698 -0.73909,-2.400926 -0.26935,-3.638956 0.22306,-0.587808 0.99549,-1.502391 1.53021,-1.811796 1.23885,-0.716865 2.70888,-0.731911 3.86999,-0.03961 1.1943,0.712097 1.88075,1.822921 1.98442,3.211131 0.0284,0.378153 0.0121,0.83566 -0.0378,1.077687 -0.28105,1.361104 -1.20681,2.45816 -2.47424,2.932026 -0.42757,0.159912 -1.46369,0.244281 -1.94855,0.158725 z m 2.83692,-1.056879 c 0.57199,-0.568952 0.48158,-1.332043 -0.21236,-1.792295 -0.25519,-0.169259 -0.80783,-0.144794 -1.0789,0.04776 -0.64015,0.454776 -0.60223,1.481594 0.0688,1.864134 0.37113,0.211576 0.94598,0.155335 1.22236,-0.119619 z m -2.76686,-2.634438 c 0.64175,-0.328042 0.97589,-0.950361 0.92272,-1.718616 -0.0298,-0.427231 -0.0715,-0.553196 -0.28571,-0.859116 -0.6416,-0.916022 -1.84991,-1.028264 -2.60534,-0.241993 -0.57618,0.599699 -0.62926,1.544047 -0.12706,2.261025 0.44796,0.639559 1.4267,0.900523 2.0954,0.5587 z"
           id="path1662" />
        <path
           style="fill:#287c95;stroke-width:1;fill-opacity:1"
           d="m 109.07678,105.73411 c -5.13604,0.97656 -9.500589,1.1385 -14.368455,0.53313 -5.570091,-0.69269 -8.127881,-1.60619 -9.292859,-3.31888 -0.787569,-1.15784 -1.140509,-3.39939 -0.966343,-6.137299 0.08267,-1.299648 0.226156,-3.499202 0.318847,-4.887906 0.168532,-2.524908 0.168532,-2.524908 -1.239019,-6.938196 -1.803871,-5.655922 -3.48309,-9.125986 -6.082956,-12.570295 -2.251238,-2.982447 -2.313211,-3.089966 -3.91356,-6.789654 -2.684908,-6.206979 -2.813262,-13.938422 -0.307719,-18.535463 2.252296,-4.13238 6.743914,-7.614314 11.681294,-9.055404 2.864907,-0.836241 4.283173,-0.848825 9.129396,-0.08133 4.357148,0.690029 5.517862,0.620724 9.717234,-0.580186 4.0288,-1.152138 5.26266,-1.193749 7.07313,-0.238517 0.7764,0.40965 1.46987,0.948401 1.54103,1.197218 0.0918,0.321008 0.24102,0.368418 0.51379,0.163215 0.21143,-0.159059 1.42496,-0.787163 2.69672,-1.395802 1.90816,-0.913197 2.67262,-1.155319 4.37386,-1.385295 6.09248,-0.823597 9.90047,1.991655 11.85369,8.763406 1.53825,5.333059 1.29182,6.716502 -3.77198,21.176515 -3.03334,8.66189 -5.58982,16.530095 -6.11144,18.809483 -0.50021,2.185838 -0.4131,4.457399 0.32885,8.57445 0.28532,1.5833 0.62695,3.494001 0.75916,4.246 0.28697,1.632276 -0.20018,2.532916 -2.14945,3.97384 -2.76598,2.04467 -6.54759,3.48148 -11.78322,4.47697 z m 10.65694,-4.7856 c 1.26366,-0.85587 1.99751,-1.542839 2.21402,-2.072609 0.34527,-0.844804 0.30988,-1.171311 -0.68173,-6.291268 -0.76537,-3.951805 -0.83576,-5.703829 -0.34135,-8.497584 0.56256,-3.178863 0.14336,-3.528979 -5.62168,-4.69538 -7.59146,-1.535928 -13.50583,-1.297061 -22.715977,0.917488 -4.827084,1.160651 -6.593045,1.956587 -7.488332,3.374951 -0.567342,0.898828 -0.564804,0.976584 0.134875,4.133831 0.657256,2.965811 0.695755,3.579956 0.4917,7.843418 -0.236849,4.948573 -0.163987,5.580733 0.779245,6.760803 1.130117,1.41386 7.053494,2.74505 13.405436,3.01267 4.913953,0.20703 8.403113,-0.30385 14.263033,-2.08835 3.19617,-0.97331 3.9149,-1.28325 5.56076,-2.39797 z m 2.08761,-22.548066 c 0.80531,-0.884324 4.17455,-8.742683 5.4804,-12.782428 2.48318,-7.68189 3.60632,-12.385827 3.78081,-15.834629 0.0806,-1.593411 -0.0451,-2.447404 -0.68006,-4.621331 -1.91129,-6.543286 -6.36829,-10.011992 -11.11894,-8.653424 -1.65687,0.473821 -3.6895,1.848372 -4.27262,2.889287 -0.54654,0.975669 -0.54654,0.975669 0.40842,4.894176 1.04143,4.273221 1.06072,4.841351 0.29221,8.609657 -0.50908,2.496255 -1.86169,5.579598 -2.86069,6.521129 -0.63886,0.602106 -0.63886,0.602106 -0.45285,-0.360083 0.10231,-0.52921 0.66718,-2.327139 1.25527,-3.995401 1.93208,-5.480795 2.03731,-7.667323 0.57089,-11.862117 -0.67336,-1.92621 -1.03059,-2.57913 -1.95288,-3.569369 -2.10406,-2.259112 -5.29897,-2.738663 -9.71782,-1.458647 -5.787744,1.676589 -8.646412,4.602846 -9.578891,9.805504 -0.600161,3.34854 -0.416874,5.88461 0.728643,10.081902 1.138146,4.170274 1.034737,4.704609 -0.413267,2.135539 -0.666164,-1.181904 -1.585116,-6.122446 -1.539768,-8.278219 0.100185,-4.762855 1.818109,-9.476363 4.177351,-11.461471 0.871774,-0.733529 0.871774,-0.733529 0.130719,-1.115238 -0.914216,-0.470903 -4.769416,-0.996096 -6.93459,-0.944696 -4.903463,0.116411 -10.662588,3.202295 -13.833762,7.412462 -2.995607,3.977078 -3.654016,9.962685 -1.825434,16.595044 0.958057,3.474922 1.894445,5.441794 4.093606,8.598572 2.288246,3.284647 3.008697,4.514786 4.238332,7.236781 1.146265,2.537439 2.197739,4.131775 2.64128,4.004932 0.136198,-0.03898 0.26637,-0.536197 0.289266,-1.104989 0.03962,-0.984149 -1.621171,-6.520489 -3.138883,-10.463638 -0.46692,-1.2131 -0.378873,-1.11688 0.798318,0.872458 0.913373,1.543504 1.663791,3.246372 2.42321,5.498789 1.47758,4.382463 2.222062,4.988042 3.885978,3.16091 0.919352,-1.009534 0.984183,-1.854196 0.364928,-4.754589 -0.454981,-2.130979 -0.462834,-2.355493 -0.05361,-1.532965 0.263685,0.530004 0.809728,1.83442 1.213425,2.898689 0.558396,1.472112 0.887698,2.013402 1.376476,2.262593 0.661986,0.337498 2.571498,0.381193 3.606447,0.08252 0.913833,-0.263412 2.298666,-1.183931 2.600852,-1.72816 0.453044,-0.815944 0.281798,-2.574906 -0.528755,-5.431225 -1.024407,-3.609793 -0.334763,-2.698348 1.049553,1.387171 1.373639,4.054012 1.406083,4.106596 2.682816,4.347487 1.40477,0.265055 4.73789,0.06255 6.2937,-0.382385 1.03834,-0.296945 1.28004,-0.486647 1.63764,-1.285353 0.23074,-0.515354 0.4427,-1.597611 0.47102,-2.40502 0.0568,-1.620486 0.55441,-4.22614 0.82159,-4.302546 0.0938,-0.02681 0.0437,0.684298 -0.11195,1.580313 -0.33133,1.910991 -0.20211,4.527692 0.26331,5.332253 1.11734,1.931517 4.79052,2.56686 6.35799,1.09973 0.95853,-0.897175 1.73644,-2.59057 2.45473,-5.343587 0.69893,-2.678832 1.94186,-5.6749 2.27702,-5.488808 0.0855,0.04741 -0.51065,2.29469 -1.32464,4.99388 -0.81399,2.6992 -1.53931,5.195093 -1.61184,5.546432 -0.29715,1.43945 0.71292,2.634916 1.9318,2.286343 0.34656,-0.09911 0.95551,-0.537516 1.35323,-0.974238 z m 2.00881,-27.712591 c 0.2264,-3.418078 -0.40603,-6.069053 -1.91691,-8.035089 -0.51879,-0.675068 -0.91044,-1.286487 -0.87034,-1.358702 0.0401,-0.07216 0.49431,0.229207 1.00937,0.669808 1.81703,1.554377 2.83162,4.551798 2.65046,7.830346 -0.0806,1.457815 -0.59316,3.491053 -0.9035,3.583697 -0.0826,0.02468 -0.0687,-1.185876 0.0309,-2.69006 z m -40.842893,3.782013 c -0.981011,-1.641479 -0.679731,-5.634141 0.620077,-8.217437 0.888648,-1.766146 1.622875,-2.48587 2.888678,-2.831628 0.969879,-0.264882 0.969879,-0.264882 0.03105,0.628525 -2.127432,2.024617 -3.383652,5.751843 -3.202972,9.503276 0.07299,1.515453 0.05308,1.569675 -0.336828,0.917264 z"
           id="path1758" />
      </g>
    </g>
  </g>
</svg>
