<svg stroke="currentColor" stroke-width="0" version="1.1" viewBox="0 0 24 24" xmlns="http://www.w3.org/2000/svg">
 <path d="m16 9c0 2.2091-1.7909 4-4 4-2.2091 0-4-1.7909-4-4 0-2.2091 1.7909-4 4-4 2.2091 0 4 1.7909 4 4zm-2 0c0 1.1046-0.8954 2-2 2s-2-0.8954-2-2c0-1.1046 0.8954-2 2-2s2 0.89543 2 2z" clip-rule="evenodd" fill="currentColor" fill-rule="evenodd"/>
 <path d="m12 0.18054c-6.5277 0-11.819 5.2918-11.819 11.819 0 6.5277 5.2918 11.819 11.819 11.819 6.5277 0 11.819-5.2918 11.819-11.819 0-6.5277-5.2918-11.819-11.819-11.819zm-9.6705 11.819c0 2.2459 0.76563 4.313 2.0501 5.9545 1.767-2.3132 4.554-3.8055 7.6897-3.8055 3.0949 0 5.8503 1.4539 7.6203 3.7159 1.2427-1.6268 1.9808-3.6596 1.9808-5.8649 0-5.3408-4.3296-9.6705-9.6705-9.6705-5.3408 0-9.6705 4.3296-9.6705 9.6705zm9.6705 9.6705c-2.3104 0-4.4316-0.81028-6.0949-2.1621 1.3602-1.9412 3.614-3.2104 6.1642-3.2104 2.5185 0 4.748 1.2379 6.1131 3.1385-1.6761 1.3949-3.8313 2.234-6.1824 2.234z" clip-rule="evenodd" fill="currentColor" fill-rule="evenodd" style="stroke-width:0"/>
</svg>
