<svg fill="currentColor" stroke="currentColor" stroke-width="0" version="1.1" viewBox="0 0 24 24" xmlns="http://www.w3.org/2000/svg">
 <path d="m18.944 17.3 4.9779 4.9767-1.6446 1.6446-4.9767-4.9779a10.414 10.414 0 0 1-6.5283 2.2884c-5.774 0-10.46-4.6861-10.46-10.46 0-5.774 4.6861-10.46 10.46-10.46 5.774 0 10.46 4.6861 10.46 10.46a10.414 10.414 0 0 1-2.2884 6.5283zm-2.3314-0.86238a8.1089 8.1089 0 0 0 2.2954-5.6659c0-4.4955-3.6413-8.1356-8.1356-8.1356-4.4955 0-8.1356 3.6401-8.1356 8.1356 0 4.4944 3.6401 8.1356 8.1356 8.1356a8.1089 8.1089 0 0 0 5.6659-2.2954z" style="stroke-width:0"/>
</svg>
