<?xml version="1.0" encoding="UTF-8" standalone="no"?>
<svg
   xmlns:dc="http://purl.org/dc/elements/1.1/"
   xmlns:cc="http://creativecommons.org/ns#"
   xmlns:rdf="http://www.w3.org/1999/02/22-rdf-syntax-ns#"
   xmlns:svg="http://www.w3.org/2000/svg"
   xmlns="http://www.w3.org/2000/svg"
   xmlns:sodipodi="http://sodipodi.sourceforge.net/DTD/sodipodi-0.dtd"
   xmlns:inkscape="http://www.inkscape.org/namespaces/inkscape"
   height="1536"
   viewBox="0 0 1536 1536"
   width="1536"
   version="1.1"
   id="svg881"
   sodipodi:docname="github-logo.svg"
   inkscape:version="1.0.2 (1.0.2+r75+1)">
  <metadata
     id="metadata887">
    <rdf:RDF>
      <cc:Work
         rdf:about="">
        <dc:format>image/svg+xml</dc:format>
        <dc:type
           rdf:resource="http://purl.org/dc/dcmitype/StillImage" />
      </cc:Work>
    </rdf:RDF>
  </metadata>
  <defs
     id="defs885" />
  <sodipodi:namedview
     pagecolor="#ffffff"
     bordercolor="#666666"
     borderopacity="1"
     objecttolerance="10"
     gridtolerance="10"
     guidetolerance="10"
     inkscape:pageopacity="0"
     inkscape:pageshadow="2"
     inkscape:window-width="1366"
     inkscape:window-height="704"
     id="namedview883"
     showgrid="false"
     inkscape:zoom="0.26339286"
     inkscape:cx="669.6089"
     inkscape:cy="728.95928"
     inkscape:window-x="0"
     inkscape:window-y="747"
     inkscape:window-maximized="1"
     inkscape:current-layer="svg881"
     inkscape:document-rotation="0" />
  <path
     d="m 394,1224 q -8,9 -20,-3 -13,-11 -4,-19 8,-9 20,3 12,11 4,19 z m -42,-61 q 9,12 0,19 -8,6 -17,-7 -9,-13 0,-18 9,-7 17,6 z m -61,-60 q -5,7 -13,2 -10,-5 -7,-12 3,-5 13,-2 10,5 7,12 z m 31,34 q -6,7 -16,-3 -9,-11 -2,-16 6,-6 16,3 9,11 2,16 z m 129,112 q -4,12 -19,6 -17,-4 -13,-15 4,-11 19,-7 16,5 13,16 z m 63,5 q 0,11 -16,11 -17,2 -17,-11 0,-11 16,-11 17,-2 17,11 z m 58,-10 q 2,10 -14,14 -16,4 -18,-8 -2,-12 14,-15 16,-2 18,9 z m 964,-956 v 960 q 0,119 -84.5,203.5 Q 1367,1536 1248,1536 h -224 q -16,0 -24.5,-1 -8.5,-1 -19.5,-5 -11,-4 -16,-14.5 -5,-10.5 -5,-27.5 v -239 q 0,-97 -52,-142 57,-6 102.5,-18 45.5,-12 94,-39 48.5,-27 81,-66.5 32.5,-39.5 53,-105 Q 1258,813 1258,728 q 0,-121 -79,-206 37,-91 -8,-204 -28,-9 -81,11 -53,20 -92,44 l -38,24 Q 867,371 768,371 669,371 576,397 560,386 533.5,370 507,354 450,331.5 393,309 364,318 q -44,113 -7,204 -79,85 -79,206 0,85 20.5,150 20.5,65 52.5,105 32,40 80.5,67 48.5,27 94,39 45.5,12 102.5,18 -40,36 -49,103 -21,10 -45,15 -24,5 -57,5 -33,0 -65.5,-21.5 Q 379,1187 356,1146 337,1114 307.5,1094 278,1074 258,1070 l -20,-3 q -21,0 -29,4.5 -8,4.5 -5,11.5 3,7 9,14 6,7 13,12 l 7,5 q 22,10 43.5,38 21.5,28 31.5,51 l 10,23 q 13,38 44,61.5 31,23.5 67,30 36,6.5 69.5,7 33.5,0.5 55.5,-3.5 l 23,-4 q 0,38 0.5,103 0.5,65 0.5,68 0,22 -11,33.5 -11,11.5 -22,13 -11,1.5 -33,1.5 H 288 Q 169,1536 84.5,1451.5 0,1367 0,1248 V 288 Q 0,169 84.5,84.5 169,0 288,0 h 960 Q 1367,0 1451.5,84.5 1536,169 1536,288 Z"
     id="path879"
     style="fill:#fffff1;fill-opacity:1" />
</svg>
