<svg xmlns="http://www.w3.org/2000/svg" width="165.774" height="210" viewBox="0 0 165.774 210">
  <g id="empty_cart" data-name="empty cart" transform="translate(-153.912 -170.245)">
    <g id="Ñëîé_2" data-name="Ñëîé 2" transform="translate(153.912 170.245)">
      <path id="Path_17149" data-name="Path 17149" d="M289.1,898.8c-1.364,1.011-2.6,2.226-2.5,4.164.2,4.121,7.279,5.11,10.173,5.5,5.126.7,10.261.592,15.412.787q28.062,1.062,56.151.4,14.416-.321,28.821-1.047c8.435-.422,17.83.119,25.821-3.139a111.993,111.993,0,0,0,13.9-7c3.722-2.162,8.55-4.225,10.756-8.269,3.867-7.088-9.686-8.488-13.415-9.267-14.663-3.064-29.785-3.609-44.7-4.064a335.753,335.753,0,0,0-45.512,1.419c-18.949,2-39.209,8.412-54.686,20.355Z" transform="translate(-286.092 -699.894)" fill="#e5e5e5"/>
      <g id="Group_3794" data-name="Group 3794" transform="translate(1.47 98.967)">
        <rect id="Rectangle_949" data-name="Rectangle 949" width="108.57" height="74.422" transform="translate(40.623 18.314)" fill="#e5e5e5"/>
        <g id="Group_3788" data-name="Group 3788" transform="translate(39.968)">
          <path id="Path_17150" data-name="Path 17150" d="M552.237,602.488H443.667l14.37-16.611a3.512,3.512,0,0,1,2.656-1.214H565.664a.911.911,0,0,1,.689,1.507Z" transform="translate(-443.011 -584.174)" fill="#fff"/>
          <g id="Group_3787" data-name="Group 3787">
            <path id="Path_17151" data-name="Path 17151" d="M550.471,600.655H443.555a5.251,5.251,0,0,0-1.464,0,.67.67,0,0,1-.19,0l.482.671,10.593-12.245c1.252-1.447,2.447-2.983,3.774-4.363.969-1.008,2.018-.936,3.235-.936H560.508a20.559,20.559,0,0,1,2.9,0c1.323.2.1,1.4-.409,1.99l-12.12,14.01-1,1.154c-.53.612.687.837,1.074.39l10.907-12.608,2.515-2.908c.418-.483,1.057-1.033,1.02-1.726-.069-1.33-1.418-1.255-2.375-1.255H461.364c-.775,0-1.556-.027-2.331,0-1.957.068-3.073,1.172-4.249,2.531L442.39,599.688l-1.081,1.249c-.338.391.118.671.482.671H545.926c1.4,0,2.852.117,4.246,0,.062-.005.127,0,.19,0C551.1,601.608,551.339,600.655,550.471,600.655Z" transform="translate(-441.191 -582.818)" fill="#262626"/>
          </g>
        </g>
        <g id="Group_3791" data-name="Group 3791" transform="translate(13.515 18.067)">
          <path id="Path_17152" data-name="Path 17152" d="M370.215,651.985l-26.671,10.383V736.79l26.671-10Z" transform="translate(-342.946 -651.738)" fill="#f7f7f7"/>
          <g id="Group_3789" data-name="Group 3789">
            <path id="Path_17153" data-name="Path 17153" d="M368.327,651.131l-23.343,9.087-3.328,1.3c-.843.328-.054.537.455.339l23.343-9.087,3.328-1.3c.843-.328.054-.537-.455-.339Z" transform="translate(-341.285 -651.054)" fill="#262626"/>
          </g>
          <g id="Group_3790" data-name="Group 3790" transform="translate(26.63 3.446)">
            <path id="Path_17154" data-name="Path 17154" d="M443.139,735.5V664.237c0-.347-1.279-.122-1.279.343v71.267c0,.347,1.279.122,1.279-.343Z" transform="translate(-441.86 -664.068)" fill="#262626"/>
          </g>
        </g>
        <g id="Group_3793" data-name="Group 3793" transform="translate(0 3.679)">
          <path id="Path_17155" data-name="Path 17155" d="M332.754,612.371l-26.671,10.383L293.3,610.306a2.334,2.334,0,0,1,.809-3.857l21.861-8.2a2.333,2.333,0,0,1,2.425.492Z" transform="translate(-291.969 -597.736)" fill="#f2f2f2"/>
          <path id="Path_17156" data-name="Path 17156" d="M337.409,623l-25.982,10.114-10.86-10.775a2.334,2.334,0,0,1,.809-3.857l7.56-2.806c3.7-1.372,8.164-4.186,12.241-3.315C324.1,612.987,337.1,622.721,337.409,623Z" transform="translate(-297.314 -608.097)" fill="#fff"/>
          <g id="Group_3792" data-name="Group 3792">
            <path id="Path_17157" data-name="Path 17157" d="M330.756,611.019l-23.343,9.087-3.328,1.3.859.061-9.8-9.541-2.283-2.223a3.946,3.946,0,0,1-1.288-1.683c-.587-2.18,2.286-2.714,3.741-3.259l15.546-5.828c1.193-.447,3.433-1.818,4.737-1.229a5.412,5.412,0,0,1,1.356,1.125l2.241,2.126,11.243,10.667c.378.359,1.588-.148,1.178-.537L321.034,601.04c-1.251-1.187-2.457-2.471-3.777-3.583-1.631-1.374-3.324-.543-5.023.094l-16.381,6.141a27.106,27.106,0,0,0-4.192,1.623,2.714,2.714,0,0,0-.792,4.111,16.165,16.165,0,0,0,1.166,1.151L303.766,622a.8.8,0,0,0,.859.061l23.343-9.087,3.328-1.3C332.119,611.357,331.385,610.774,330.756,611.019Z" transform="translate(-290.242 -596.714)" fill="#262626"/>
          </g>
        </g>
      </g>
      <g id="Group_3807" data-name="Group 3807" transform="translate(0 116.826)">
        <rect id="Rectangle_950" data-name="Rectangle 950" width="108.907" height="74.422" transform="translate(15.085 10.838)" fill="#f2f2f2"/>
        <path id="Path_17158" data-name="Path 17158" d="M450.57,697.021c-3.493,5.207-7.518,12.212-10.019,16.684a8.582,8.582,0,0,1-7.473,4.394l-91.415.2v51.6H450.57Z" transform="translate(-326.578 -684.641)" fill="#fff"/>
        <g id="Group_3796" data-name="Group 3796" transform="translate(123.353 0.455)">
          <path id="Path_17159" data-name="Path 17159" d="M779.649,651.985l-26.671,10.383V736.79l26.671-10Z" transform="translate(-752.338 -651.985)" fill="#e5e5e5"/>
          <path id="Path_17160" data-name="Path 17160" d="M779.649,714.05l-8.857,3.555a7.255,7.255,0,0,1-8.5-2.373l-9.312-12.387v71.338l26.671-10Z" transform="translate(-752.339 -689.378)" fill="#f2f2f2"/>
          <g id="Group_3795" data-name="Group 3795" transform="translate(0 13.266)">
            <path id="Path_17161" data-name="Path 17161" d="M750.563,702.554v68.465c0,.274,1.279.073,1.279-.343V702.211c0-.274-1.279-.073-1.279.343Z" transform="translate(-750.563 -702.085)" fill="#262626"/>
          </g>
        </g>
        <g id="Group_3797" data-name="Group 3797" transform="translate(14.481 0.179)">
          <path id="Path_17162" data-name="Path 17162" d="M339.723,661.912H443.37c1.713,0,3.525.169,5.233,0a11.647,11.647,0,0,0,2.831-1l7.748-3.016,15.616-6.079,1-.391c.838-.326.062-.622-.475-.413l-11.988,4.667c-4.76,1.853-9.667,3.505-14.335,5.58-.633.281.058.015.083.03-.111-.065-.458,0-.584,0h-87.8c-6.708,0-13.449-.2-20.155,0-.1,0-.2,0-.3,0-.417,0-1.378.625-.524.625Z" transform="translate(-339.38 -650.94)" fill="#262626"/>
        </g>
        <g id="Group_3798" data-name="Group 3798" transform="translate(14.437 23.111)">
          <path id="Path_17163" data-name="Path 17163" d="M474.794,738.07v51.677l.364-.428-12.1,4.537c-4.744,1.779-9.612,3.373-14.277,5.352-.551.234.137.041-.037.018a4.959,4.959,0,0,0-.614,0H342.537a13.215,13.215,0,0,0-2.313,0,1.7,1.7,0,0,1-.3,0l.592.423V745.273c0-.671-1.3-.483-1.3.1v54.376c0,.332.309.423.592.423H443.333a40.714,40.714,0,0,0,5.341,0,13.25,13.25,0,0,0,2.64-.938l7.655-2.87,15.744-5.9,1.015-.38c.153-.057.364-.248.364-.428V737.975c0-.671-1.3-.483-1.3.1Z" transform="translate(-339.216 -737.548)" fill="#262626"/>
        </g>
        <g id="Group_3800" data-name="Group 3800" transform="translate(0 10.42)">
          <path id="Path_17164" data-name="Path 17164" d="M410.192,691.2H301.285l-14.359,16.6a.742.742,0,0,0,.561,1.227H394.433a.741.741,0,0,0,.561-.257Z" transform="translate(-286.199 -690.779)" fill="#f2f2f2"/>
          <path id="Path_17165" data-name="Path 17165" d="M437.666,691.2H329.833c-1.659,3.206-3.253,6.455-5.006,9.611-1.077,1.94-1.284,5.105,1.864,5.105h92.476a6.947,6.947,0,0,0,4.741-1.869Z" transform="translate(-313.673 -690.779)" fill="#fff"/>
          <g id="Group_3799" data-name="Group 3799">
            <path id="Path_17166" data-name="Path 17166" d="M408.917,689.622H300.709a2.158,2.158,0,0,0-1.476.287,9.377,9.377,0,0,0-1.062,1.228l-2.241,2.592-10.667,12.333c-.759.878-.95,2.1.592,2.217.59.043,1.2,0,1.792,0h103.43c.519,0,1.049.033,1.567,0,1.256-.079,1.829-1.063,2.586-1.938l11.2-12.95,2.775-3.208c.512-.592-.718-.676-1.048-.294L397.527,702.18c-1.489,1.721-2.928,3.507-4.476,5.175-.2.221.307.036-.113.1a6.867,6.867,0,0,1-.928,0H289.638a21.475,21.475,0,0,1-2.977,0c-.109-.016-.351.057-.447,0-.827-.484.428-1.478.71-1.8l12.294-14.215,1.08-1.248-.759.267H395c4.4,0,8.869.243,13.261,0,.063,0,.127,0,.19,0C408.994,690.45,409.779,689.622,408.917,689.622Z" transform="translate(-284.689 -689.617)" fill="#262626"/>
          </g>
        </g>
        <g id="Group_3802" data-name="Group 3802" transform="translate(123.357)">
          <path id="Path_17167" data-name="Path 17167" d="M779.649,651.985l-26.671,10.382,14.89,14.389a1.167,1.167,0,0,0,1.221.253l24.275-9.1a1.167,1.167,0,0,0,.412-1.922Z" transform="translate(-752.342 -651.53)" fill="#f2f2f2"/>
          <path id="Path_17168" data-name="Path 17168" d="M779.68,653.26,754.2,663.434l13.4,13.532a1.017,1.017,0,0,0,1.1.239l10.05-3.939,6.081-2.384c1.986-.779,4.765-1.719,4.523-4.4a5.446,5.446,0,0,0-1.742-3.06C786.7,662.455,780.125,653.722,779.68,653.26Z" transform="translate(-753.241 -652.467)" fill="#fff"/>
          <g id="Group_3801" data-name="Group 3801">
            <path id="Path_17169" data-name="Path 17169" d="M777.594,650.32l-23.343,9.087-3.328,1.3a.463.463,0,0,0-.2.781l11,10.631a47.574,47.574,0,0,0,3.887,3.756c1.3.992,3.307-.216,4.622-.708l17.435-6.536a43.6,43.6,0,0,0,4.219-1.582c2.541-1.272.065-3.245-1.062-4.363l-12.358-12.25c-.429-.425-1.635.112-1.167.576l10.24,10.15,2.716,2.692A7.641,7.641,0,0,1,791.413,665c.931,1.506-2.4,2.107-3.312,2.449l-16.751,6.28-2.972,1.114a4.622,4.622,0,0,1-1.323.5c-.43-.023-.932-.679-1.211-.948l-2.327-2.249L751.7,660.722l-.2.781,23.343-9.087,3.328-1.3C778.985,650.8,778.271,650.057,777.594,650.32Z" transform="translate(-750.576 -650.265)" fill="#262626"/>
          </g>
        </g>
        <g id="Group_3806" data-name="Group 3806" transform="translate(115.638 29.872)">
          <g id="Group_3803" data-name="Group 3803">
            <path id="Path_17170" data-name="Path 17170" d="M721.426,763.619v12.644c0,.691,1.3.519,1.3-.086V763.533c0-.691-1.3-.519-1.3.086Z" transform="translate(-721.426 -763.085)" fill="#262626"/>
          </g>
          <g id="Group_3804" data-name="Group 3804" transform="translate(0.01 15.428)">
            <path id="Path_17171" data-name="Path 17171" d="M721.463,821.81V823.8c0,.536,1.279.268,1.279-.157v-1.994c0-.536-1.279-.268-1.279.158Z" transform="translate(-721.463 -821.354)" fill="#262626"/>
          </g>
          <g id="Group_3805" data-name="Group 3805" transform="translate(0.003 19.665)">
            <path id="Path_17172" data-name="Path 17172" d="M721.437,837.868v5.194c0,.649,1.293.445,1.293-.107v-5.194c0-.65-1.293-.445-1.293.107Z" transform="translate(-721.437 -837.357)" fill="#262626"/>
          </g>
        </g>
      </g>
      <g id="Group_3816" data-name="Group 3816" transform="translate(129.035 172.665)">
        <g id="Group_3815" data-name="Group 3815">
          <g id="Group_3808" data-name="Group 3808" transform="translate(0.06 8.837)">
            <path id="Path_17173" data-name="Path 17173" d="M772.956,899.161l11.546-3.729c.768-.248.553-1.109-.23-.856L772.727,898.3c-.768.248-.554,1.109.229.857Z" transform="translate(-772.248 -894.53)" fill="#d1d1d1"/>
          </g>
          <g id="Group_3809" data-name="Group 3809" transform="translate(0.078 4.396)">
            <path id="Path_17174" data-name="Path 17174" d="M772.981,882.252l11.491-3.763c.748-.245.587-.929-.181-.677L772.8,881.575c-.748.245-.587.928.181.677Z" transform="translate(-772.315 -877.757)" fill="#d1d1d1"/>
          </g>
          <g id="Group_3810" data-name="Group 3810" transform="translate(0.086)">
            <path id="Path_17175" data-name="Path 17175" d="M772.993,865.606l11.439-3.8c.738-.245.6-.847-.159-.595l-11.439,3.8c-.738.245-.6.847.159.595Z" transform="translate(-772.346 -861.155)" fill="#d1d1d1"/>
          </g>
          <g id="Group_3814" data-name="Group 3814" transform="translate(0 12.368)">
            <g id="Group_3811" data-name="Group 3811" transform="translate(0 2.776)">
              <path id="Path_17176" data-name="Path 17176" d="M772.8,920.14l2.549-.814c.264-.084.6-.319.513-.643-.082-.307-.5-.384-.766-.3l-2.549.814c-.264.084-.6.318-.513.643.082.307.5.384.766.3Z" transform="translate(-772.021 -918.351)" fill="#d1d1d1"/>
            </g>
            <g id="Group_3812" data-name="Group 3812" transform="translate(4.483 1.503)">
              <path id="Path_17177" data-name="Path 17177" d="M789.675,914.991l2.572-.822c.166-.053.631-.2.562-.459s-.566-.164-.716-.116l-2.572.822c-.166.053-.631.2-.562.458s.565.164.716.116Z" transform="translate(-788.952 -913.543)" fill="#d1d1d1"/>
            </g>
            <g id="Group_3813" data-name="Group 3813" transform="translate(8.996)">
              <path id="Path_17178" data-name="Path 17178" d="M806.741,909.437l2.6-.829c.2-.064.622-.238.545-.522s-.542-.24-.733-.179l-2.6.829c-.2.064-.622.237-.546.522s.542.24.733.179Z" transform="translate(-805.998 -907.865)" fill="#d1d1d1"/>
            </g>
          </g>
        </g>
      </g>
      <g id="Group_3818" data-name="Group 3818" transform="translate(54.15 165.55)">
        <g id="Group_3817" data-name="Group 3817" transform="translate(0 10.274)">
          <path id="Path_17179" data-name="Path 17179" d="M490.411,880.547c3.4-3.962,9.025-6.259,14.143-6.473a21.9,21.9,0,0,1,11.224,2.587,20.091,20.091,0,0,1,3.959,2.77c.424.424,1.631-.11,1.168-.574a21.217,21.217,0,0,0-10.312-5.248,22.772,22.772,0,0,0-17.94,3.645,17.964,17.964,0,0,0-3.32,2.888c-.53.617.682.866,1.078.406Z" transform="translate(-489.201 -873.088)" fill="#262626"/>
        </g>
        <path id="Path_17180" data-name="Path 17180" d="M500.363,835.817a2.058,2.058,0,0,1-1.316,2.468,1.815,1.815,0,0,1-2.212-1.468,2.058,2.058,0,0,1,1.316-2.468A1.815,1.815,0,0,1,500.363,835.817Z" transform="translate(-494.772 -834.286)" fill="#262626"/>
        <ellipse id="Ellipse_105" data-name="Ellipse 105" cx="1.82" cy="2.03" rx="1.82" ry="2.03" transform="translate(27.196 0.687)" fill="#262626"/>
      </g>
      <g id="Group_3819" data-name="Group 3819" transform="translate(36.634 0)">
        <path id="Path_17181" data-name="Path 17181" d="M481.2,329.479c-5.86.7-12.167,1.474-17.747-.961-4.633-2.022-8.487-6.275-8.189-11.59.31-5.524,4.333-9.845,9.207-12a28.739,28.739,0,0,1,17.279-1.465c2.725.562,6.011,1.367,8.285,3.062,1.9,1.418,2.654,3.946.812,5.721a11.747,11.747,0,0,1-5.116,2.376c-1.843.506-3.714.978-5.6,1.305-9.6,1.67-20.5.084-28.034-6.516a18.005,18.005,0,0,1-6.353-13.146c-.016-5.151,2.893-9.842,6.8-13.02,7.82-6.36,18.694-8.171,28.491-8.216a89.638,89.638,0,0,1,14.462,1.162,27.448,27.448,0,0,1,7.56,1.913c2.377,1.132,4.79,3.5,4.158,6.381-.6,2.726-3.741,3.59-6.075,4.269a39.254,39.254,0,0,1-9.259,1.421,106.975,106.975,0,0,1-17.71-.908,95.41,95.41,0,0,1-16.361-3.342,35.606,35.606,0,0,1-10.946-5.19,17.788,17.788,0,0,1-6.668-9.424,21.315,21.315,0,0,1,.751-13.233c3.206-8.233,11.283-13.314,19.259-16.189a86.133,86.133,0,0,1,34.222-4.559,89.872,89.872,0,0,1,17.409,2.853,73,73,0,0,1,8.569,2.8c2.328.935,4.7,2,5.884,4.359,2.287,4.544-2.242,8.849-5.858,10.891-3.967,2.24-8.6,3.562-12.987,4.726a87.767,87.767,0,0,1-17.929,2.465c-5.751.3-11.523.509-17.283.416-11.092-.178-22.469-1.582-32.505-6.6-8.716-4.359-17.3-13.241-15.12-23.859,1.029-5.011,4.77-9.351,8.62-12.512a45.251,45.251,0,0,1,13.506-7.351c9.987-3.6,20.739-4.848,31.281-5.467a152.363,152.363,0,0,1,35.154,1.891,154.5,154.5,0,0,1,17.344,4.078c.361.107,1.511-.443,1.026-.587a155.354,155.354,0,0,0-74.184-3.462c-10.464,2.169-21.41,6.039-28.759,14.171-3.605,3.99-6.054,8.866-5.471,14.351a22.214,22.214,0,0,0,7.2,13.676c8.571,7.983,21.149,10.9,32.478,11.9a153.807,153.807,0,0,0,18.3.349,159.276,159.276,0,0,0,19.469-1.427,81.232,81.232,0,0,0,15.82-4.243c4.12-1.536,8.489-3.737,10.76-7.694a6.226,6.226,0,0,0,.246-6.357c-1.259-2.226-3.472-3.28-5.743-4.2a82.606,82.606,0,0,0-18.1-4.888,91.6,91.6,0,0,0-37.706,1.937c-8.958,2.375-18.451,6.389-23.857,14.328-5.058,7.43-5.356,18.259,1.033,25.011a28.549,28.549,0,0,0,11.088,6.738,82.573,82.573,0,0,0,15.728,3.809,118.758,118.758,0,0,0,19.576,1.475,48.3,48.3,0,0,0,9.036-.876,23.419,23.419,0,0,0,7.708-2.64,4.726,4.726,0,0,0,2.3-5.178c-.61-2.492-2.9-4.125-5.163-5.029a34.923,34.923,0,0,0-7.783-1.755q-3.861-.583-7.76-.855c-10.361-.718-21.317.217-30.7,4.994-4.564,2.324-8.738,5.623-11.022,10.311a15.922,15.922,0,0,0,.8,15.054c5.329,9.2,17.078,12.6,27.1,12.264,3.573-.118,23.493-2.145,18.638-9.734-1.466-2.291-4.691-3.195-7.147-3.919A34.47,34.47,0,0,0,477,302.138c-5.48-.209-11.33.9-15.989,3.909-4.272,2.758-7.471,7.492-6.991,12.751.477,5.22,4.824,9.056,9.517,10.744,5.592,2.011,11.717,1.275,17.479.583.595-.071,1.083-.754.191-.647Z" transform="translate(-423.046 -209.043)" fill="#262626"/>
      </g>
    </g>
  </g>
</svg>
