<?xml version="1.0" encoding="UTF-8" standalone="no"?>
<svg
   xmlns:dc="http://purl.org/dc/elements/1.1/"
   xmlns:cc="http://creativecommons.org/ns#"
   xmlns:rdf="http://www.w3.org/1999/02/22-rdf-syntax-ns#"
   xmlns:svg="http://www.w3.org/2000/svg"
   xmlns="http://www.w3.org/2000/svg"
   xmlns:sodipodi="http://sodipodi.sourceforge.net/DTD/sodipodi-0.dtd"
   xmlns:inkscape="http://www.inkscape.org/namespaces/inkscape"
   version="1.1"
   id="Capa_1"
   x="0px"
   y="0px"
   viewBox="0 0 43.652 43.652"
   xml:space="preserve"
   sodipodi:docname="close.svg"
   inkscape:version="1.0.2 (1.0.2+r75+1)"
   width="43.652"
   height="43.652"><metadata
   id="metadata43"><rdf:RDF><cc:Work
       rdf:about=""><dc:format>image/svg+xml</dc:format><dc:type
         rdf:resource="http://purl.org/dc/dcmitype/StillImage" /><dc:title></dc:title></cc:Work></rdf:RDF></metadata><defs
   id="defs41" /><sodipodi:namedview
   pagecolor="#ffffff"
   bordercolor="#666666"
   borderopacity="1"
   objecttolerance="10"
   gridtolerance="10"
   guidetolerance="10"
   inkscape:pageopacity="0"
   inkscape:pageshadow="2"
   inkscape:window-width="1366"
   inkscape:window-height="704"
   id="namedview39"
   showgrid="false"
   inkscape:snap-page="true"
   inkscape:zoom="8.9092992"
   inkscape:cx="20.04584"
   inkscape:cy="25.304648"
   inkscape:window-x="0"
   inkscape:window-y="747"
   inkscape:window-maximized="1"
   inkscape:current-layer="Capa_1"
   inkscape:document-rotation="0" />
<g
   id="g6"
   style="fill:#004c5c;fill-opacity:1;stroke:none;stroke-width:4.43678;stroke-miterlimit:4;stroke-dasharray:none;stroke-opacity:1"
   transform="matrix(0.96426186,0,0,0.96426186,0.78002042,0.78002042)">
	<g
   id="g4"
   style="fill:#004c5c;fill-opacity:1;stroke:none;stroke-width:4.43678;stroke-miterlimit:4;stroke-dasharray:none;stroke-opacity:1">
		<path
   style="fill:#004c5c;fill-opacity:1;stroke:none;stroke-width:4.43678;stroke-miterlimit:4;stroke-dasharray:none;stroke-opacity:1"
   d="m 1.338,37.446 c 0.078,1.734 0.828,3.335 2.11,4.505 1.201,1.096 2.757,1.7 4.382,1.7 1.822,0 3.572,-0.771 4.801,-2.117 l 9.195,-10.07 9.195,10.071 c 1.229,1.345 2.979,2.117 4.801,2.117 1.626,0 3.183,-0.604 4.382,-1.7 1.282,-1.171 2.032,-2.771 2.11,-4.505 0.079,-1.734 -0.522,-3.396 -1.693,-4.678 L 30.63,21.825 40.621,10.882 C 41.792,9.6 42.393,7.938 42.314,6.204 42.236,4.47 41.486,2.869 40.204,1.699 39.004,0.603 37.447,0 35.822,0 34,0 32.25,0.771 31.021,2.117 L 21.826,12.187 12.631,2.116 C 11.402,0.771 9.652,0 7.829,0 6.204,0 4.648,0.604 3.448,1.699 2.166,2.87 1.416,4.47 1.338,6.204 1.259,7.938 1.86,9.6 3.031,10.882 L 13.022,21.826 3.031,32.767 C 1.86,34.05 1.259,35.711 1.338,37.446 Z"
   id="path2"
   sodipodi:nodetypes="ccscccscccccccscccscccccc" />
	</g>
</g>
<g
   id="g8">
</g>
<g
   id="g10">
</g>
<g
   id="g12">
</g>
<g
   id="g14">
</g>
<g
   id="g16">
</g>
<g
   id="g18">
</g>
<g
   id="g20">
</g>
<g
   id="g22">
</g>
<g
   id="g24">
</g>
<g
   id="g26">
</g>
<g
   id="g28">
</g>
<g
   id="g30">
</g>
<g
   id="g32">
</g>
<g
   id="g34">
</g>
<g
   id="g36">
</g>
</svg>
