<?xml version="1.0" encoding="UTF-8" standalone="no"?>
<svg
   xmlns:dc="http://purl.org/dc/elements/1.1/"
   xmlns:cc="http://creativecommons.org/ns#"
   xmlns:rdf="http://www.w3.org/1999/02/22-rdf-syntax-ns#"
   xmlns:svg="http://www.w3.org/2000/svg"
   xmlns="http://www.w3.org/2000/svg"
   xmlns:sodipodi="http://sodipodi.sourceforge.net/DTD/sodipodi-0.dtd"
   xmlns:inkscape="http://www.inkscape.org/namespaces/inkscape"
   version="1.1"
   id="Capa_1"
   x="0px"
   y="0px"
   width="43.652"
   height="43.652"
   viewBox="0 0 43.651999 43.652001"
   xml:space="preserve"
   sodipodi:docname="up-arrow.svg"
   inkscape:version="1.0.2 (1.0.2+r75+1)"><metadata
   id="metadata43"><rdf:RDF><cc:Work
       rdf:about=""><dc:format>image/svg+xml</dc:format><dc:type
         rdf:resource="http://purl.org/dc/dcmitype/StillImage" /><dc:title></dc:title></cc:Work></rdf:RDF></metadata><defs
   id="defs41">
	
	
</defs><sodipodi:namedview
   pagecolor="#ffffff"
   bordercolor="#666666"
   borderopacity="1"
   objecttolerance="10"
   gridtolerance="10"
   guidetolerance="10"
   inkscape:pageopacity="0"
   inkscape:pageshadow="2"
   inkscape:window-width="1366"
   inkscape:window-height="704"
   id="namedview39"
   showgrid="false"
   inkscape:zoom="6.4116646"
   inkscape:cx="23.053714"
   inkscape:cy="26.799358"
   inkscape:window-x="0"
   inkscape:window-y="747"
   inkscape:window-maximized="1"
   inkscape:current-layer="Capa_1"
   inkscape:document-rotation="0"
   inkscape:snap-page="true" />
<g
   id="g855"
   transform="matrix(1.0316262,0,0,1.0316058,-0.94028549,1.1230306)"
   style="fill:#004c5c;fill-opacity:1;stroke:none;stroke-width:2.80259;stroke-miterlimit:4;stroke-dasharray:none;opacity:0.998"><path
     d="m 7.442355,40.633708 c 1.0475886,0 2.1069921,-0.34661 2.981295,-1.063342 l 11.346251,-9.243197 11.456484,9.333778 c 0.878281,0.712833 1.933747,1.063342 2.981296,1.063342 1.370529,0 2.733182,-0.594723 3.666599,-1.74073 1.65011,-2.024288 1.342962,-5.001645 -0.677388,-6.647855 L 24.755135,20.568054 c -1.736792,-1.417789 -4.233676,-1.417789 -5.970467,0 L 4.4571214,32.245123 c -2.0242878,1.64621 -2.3275371,4.623528 -0.6813265,6.647855 0.9373162,1.146046 2.2960307,1.74073 3.6665601,1.74073 z"
     id="path2"
     style="fill:#004c5c;fill-opacity:1;stroke:none;stroke-width:2.80259;stroke-miterlimit:4;stroke-dasharray:none;stroke-opacity:1" /><path
     d="m 7.442355,20.057391 c 1.0475886,0 2.1069921,-0.346571 2.981295,-1.063342 L 21.769901,9.750852 33.226385,19.08463 c 0.878281,0.712872 1.933747,1.063342 2.981296,1.063342 1.370529,0 2.733182,-0.594684 3.666599,-1.74073 1.65011,-2.024249 1.342962,-5.001645 -0.677388,-6.647856 L 24.755135,-0.0082632 c -1.736792,-1.417789 -4.233676,-1.417789 -5.970467,0 L 4.4571214,11.664867 c -2.0242878,1.650149 -2.3275371,4.627506 -0.6813265,6.651794 0.9373162,1.146046 2.2960307,1.74073 3.6665601,1.74073 z"
     id="path4"
     style="fill:#004c5c;fill-opacity:1;stroke:none;stroke-width:2.80259;stroke-miterlimit:4;stroke-dasharray:none;stroke-opacity:1" /></g>
<g
   id="g8">
</g>
<g
   id="g10">
</g>
<g
   id="g12">
</g>
<g
   id="g14">
</g>
<g
   id="g16">
</g>
<g
   id="g18">
</g>
<g
   id="g20">
</g>
<g
   id="g22">
</g>
<g
   id="g24">
</g>
<g
   id="g26">
</g>
<g
   id="g28">
</g>
<g
   id="g30">
</g>
<g
   id="g32">
</g>
<g
   id="g34">
</g>
<g
   id="g36">
</g>
</svg>
